STARTFONT 2.1
FONT -Misc-Nixedsys-Medium-R-Normal--15-140-75-75-C-80-ISO10646-1
SIZE 14 75 75
FONTBOUNDINGBOX 8 15 0 -3
STARTPROPERTIES 32
FOUNDRY "Misc"
FAMILY_NAME "Nixedsys"
WEIGHT_NAME "Medium"
SLANT "R"
SETWIDTH_NAME "Normal"
ADD_STYLE_NAME ""
PIXEL_SIZE 15
POINT_SIZE 140
RESOLUTION_X 75
RESOLUTION_Y 75
SPACING "C"
AVERAGE_WIDTH 80
CHARSET_REGISTRY "ISO10646"
CHARSET_ENCODING "1"
FONTNAME_REGISTRY ""
CHARSET_COLLECTIONS "ISO10646-1"
FONT_VERSION "001.000"
FONT_ASCENT 12
FONT_DESCENT 3
UNDERLINE_POSITION -2
UNDERLINE_THICKNESS 1
X_HEIGHT 6
CAP_HEIGHT 8
RAW_ASCENT 800
RAW_DESCENT 200
NORM_SPACE 8
RELATIVE_WEIGHT 40
RELATIVE_SETWIDTH 50
FIGURE_WIDTH 8
AVG_LOWERCASE_WIDTH 80
AVG_UPPERCASE_WIDTH "80"
_GBDFED_INFO "Edited with gbdfed 1.6."
ENDPROPERTIES
CHARS 384
STARTCHAR <control>
ENCODING 0
SWIDTH 548 0
DWIDTH 8 0
BBX 8 15 0 -3
BITMAP
00
00
00
7E
7E
7E
7E
7E
7E
7E
7E
7E
00
00
00
ENDCHAR
STARTCHAR <control>
ENCODING 1
SWIDTH 548 0
DWIDTH 8 0
BBX 8 15 0 -3
BITMAP
00
00
00
7E
7E
7E
7E
7E
7E
7E
7E
7E
00
00
00
ENDCHAR
STARTCHAR <control>
ENCODING 2
SWIDTH 548 0
DWIDTH 8 0
BBX 8 15 0 -3
BITMAP
33
44
44
33
00
7F
7F
43
49
43
49
43
7F
7F
00
ENDCHAR
STARTCHAR <control>
ENCODING 3
SWIDTH 548 0
DWIDTH 8 0
BBX 8 15 0 -3
BITMAP
33
44
44
33
00
7F
7F
63
49
4F
49
63
7F
7F
00
ENDCHAR
STARTCHAR <control>
ENCODING 4
SWIDTH 548 0
DWIDTH 8 0
BBX 8 15 0 -3
BITMAP
00
00
00
7E
7E
7E
7E
7E
7E
7E
7E
7E
00
00
00
ENDCHAR
STARTCHAR <control>
ENCODING 5
SWIDTH 548 0
DWIDTH 8 0
BBX 8 15 0 -3
BITMAP
00
00
00
7E
7E
7E
7E
7E
7E
7E
7E
7E
00
00
00
ENDCHAR
STARTCHAR <control>
ENCODING 6
SWIDTH 548 0
DWIDTH 8 0
BBX 8 15 0 -3
BITMAP
00
00
00
7E
7E
7E
7E
7E
7E
7E
7E
7E
00
00
00
ENDCHAR
STARTCHAR <control>
ENCODING 7
SWIDTH 548 0
DWIDTH 8 0
BBX 8 15 0 -3
BITMAP
00
00
00
7E
7E
7E
7E
7E
7E
7E
7E
7E
00
00
00
ENDCHAR
STARTCHAR <control>
ENCODING 8
SWIDTH 548 0
DWIDTH 8 0
BBX 8 15 0 -3
BITMAP
00
00
00
7E
7E
7E
7E
7E
7E
7E
7E
7E
00
00
00
ENDCHAR
STARTCHAR <control>
ENCODING 9
SWIDTH 548 0
DWIDTH 8 0
BBX 8 15 0 -3
BITMAP
00
00
00
7E
7E
7E
7E
7E
7E
7E
7E
7E
00
00
00
ENDCHAR
STARTCHAR <control>
ENCODING 10
SWIDTH 548 0
DWIDTH 8 0
BBX 8 15 0 -3
BITMAP
00
00
00
7E
7E
7E
7E
7E
7E
7E
7E
7E
00
00
00
ENDCHAR
STARTCHAR <control>
ENCODING 11
SWIDTH 548 0
DWIDTH 8 0
BBX 8 15 0 -3
BITMAP
00
00
00
7E
7E
7E
7E
7E
7E
7E
7E
7E
00
00
00
ENDCHAR
STARTCHAR <control>
ENCODING 12
SWIDTH 548 0
DWIDTH 8 0
BBX 8 15 0 -3
BITMAP
00
00
00
7E
7E
7E
7E
7E
7E
7E
7E
7E
00
00
00
ENDCHAR
STARTCHAR <control>
ENCODING 13
SWIDTH 548 0
DWIDTH 8 0
BBX 8 15 0 -3
BITMAP
00
00
00
7E
7E
7E
7E
7E
7E
7E
7E
7E
00
00
00
ENDCHAR
STARTCHAR <control>
ENCODING 14
SWIDTH 548 0
DWIDTH 8 0
BBX 8 15 0 -3
BITMAP
00
00
00
7E
7E
7E
7E
7E
7E
7E
7E
7E
00
00
00
ENDCHAR
STARTCHAR <control>
ENCODING 15
SWIDTH 548 0
DWIDTH 8 0
BBX 8 15 0 -3
BITMAP
33
44
44
33
00
7F
7F
63
49
49
49
63
7F
7F
00
ENDCHAR
STARTCHAR <control>
ENCODING 16
SWIDTH 548 0
DWIDTH 8 0
BBX 8 15 0 -3
BITMAP
00
00
00
7E
7E
7E
7E
7E
7E
7E
7E
7E
00
00
00
ENDCHAR
STARTCHAR <control>
ENCODING 17
SWIDTH 548 0
DWIDTH 8 0
BBX 8 15 0 -3
BITMAP
00
00
00
7E
7E
7E
7E
7E
7E
7E
7E
7E
00
00
00
ENDCHAR
STARTCHAR <control>
ENCODING 18
SWIDTH 548 0
DWIDTH 8 0
BBX 8 15 0 -3
BITMAP
00
00
00
7E
7E
7E
7E
7E
7E
7E
7E
7E
00
00
00
ENDCHAR
STARTCHAR <control>
ENCODING 19
SWIDTH 548 0
DWIDTH 8 0
BBX 8 15 0 -3
BITMAP
00
00
00
7E
7E
7E
7E
7E
7E
7E
7E
7E
00
00
00
ENDCHAR
STARTCHAR <control>
ENCODING 20
SWIDTH 548 0
DWIDTH 8 0
BBX 8 15 0 -3
BITMAP
00
00
00
7E
7E
7E
7E
7E
7E
7E
7E
7E
00
00
00
ENDCHAR
STARTCHAR <control>
ENCODING 21
SWIDTH 548 0
DWIDTH 8 0
BBX 8 15 0 -3
BITMAP
00
00
00
7E
7E
7E
7E
7E
7E
7E
7E
7E
00
00
00
ENDCHAR
STARTCHAR <control>
ENCODING 22
SWIDTH 548 0
DWIDTH 8 0
BBX 8 15 0 -3
BITMAP
33
44
44
33
00
7F
7F
43
49
43
49
49
7F
7F
00
ENDCHAR
STARTCHAR <control>
ENCODING 23
SWIDTH 548 0
DWIDTH 8 0
BBX 8 15 0 -3
BITMAP
00
00
00
7E
7E
7E
7E
7E
7E
7E
7E
7E
00
00
00
ENDCHAR
STARTCHAR <control>
ENCODING 24
SWIDTH 548 0
DWIDTH 8 0
BBX 8 15 0 -3
BITMAP
00
00
00
7E
7E
7E
7E
7E
7E
7E
7E
7E
00
00
00
ENDCHAR
STARTCHAR <control>
ENCODING 25
SWIDTH 548 0
DWIDTH 8 0
BBX 8 15 0 -3
BITMAP
00
00
00
7E
7E
7E
7E
7E
7E
7E
7E
7E
00
00
00
ENDCHAR
STARTCHAR <control>
ENCODING 26
SWIDTH 548 0
DWIDTH 8 0
BBX 8 15 0 -3
BITMAP
00
00
00
7E
7E
7E
7E
7E
7E
7E
7E
7E
00
00
00
ENDCHAR
STARTCHAR <control>
ENCODING 27
SWIDTH 548 0
DWIDTH 8 0
BBX 8 15 0 -3
BITMAP
00
00
00
7E
7E
7E
7E
7E
7E
7E
7E
7E
00
00
00
ENDCHAR
STARTCHAR <control>
ENCODING 28
SWIDTH 548 0
DWIDTH 8 0
BBX 8 15 0 -3
BITMAP
00
00
00
7E
7E
7E
7E
7E
7E
7E
7E
7E
00
00
00
ENDCHAR
STARTCHAR <control>
ENCODING 29
SWIDTH 548 0
DWIDTH 8 0
BBX 8 15 0 -3
BITMAP
00
00
00
7E
7E
7E
7E
7E
7E
7E
7E
7E
00
00
00
ENDCHAR
STARTCHAR <control>
ENCODING 30
SWIDTH 548 0
DWIDTH 8 0
BBX 8 15 0 -3
BITMAP
00
00
00
7E
7E
7E
7E
7E
7E
7E
7E
7E
00
00
00
ENDCHAR
STARTCHAR <control>
ENCODING 31
SWIDTH 548 0
DWIDTH 8 0
BBX 8 15 0 -3
BITMAP
33
44
44
33
00
7F
7F
49
49
49
49
63
7F
7F
00
ENDCHAR
STARTCHAR SPACE
ENCODING 32
SWIDTH 548 0
DWIDTH 8 0
BBX 8 15 0 -3
BITMAP
00
00
00
00
00
00
00
00
00
00
00
00
00
00
00
ENDCHAR
STARTCHAR EXCLAMATION MARK
ENCODING 33
SWIDTH 548 0
DWIDTH 8 0
BBX 8 15 0 -3
BITMAP
00
00
00
18
3C
3C
3C
18
18
00
18
18
00
00
00
ENDCHAR
STARTCHAR QUOTATION MARK
ENCODING 34
SWIDTH 548 0
DWIDTH 8 0
BBX 8 15 0 -3
BITMAP
00
00
00
66
66
66
00
00
00
00
00
00
00
00
00
ENDCHAR
STARTCHAR NUMBER SIGN
ENCODING 35
SWIDTH 548 0
DWIDTH 8 0
BBX 8 15 0 -3
BITMAP
00
00
00
36
36
7F
36
36
36
7F
36
36
00
00
00
ENDCHAR
STARTCHAR DOLLAR SIGN
ENCODING 36
SWIDTH 548 0
DWIDTH 8 0
BBX 8 15 0 -3
BITMAP
00
18
18
3C
66
60
30
18
0C
06
66
3C
18
18
00
ENDCHAR
STARTCHAR PERCENT SIGN
ENCODING 37
SWIDTH 548 0
DWIDTH 8 0
BBX 8 15 0 -3
BITMAP
00
00
70
D8
DA
76
0C
18
30
6E
5B
1B
0E
00
00
ENDCHAR
STARTCHAR AMPERSAND
ENCODING 38
SWIDTH 548 0
DWIDTH 8 0
BBX 8 15 0 -3
BITMAP
00
00
00
38
6C
6C
38
60
6F
66
66
3B
00
00
00
ENDCHAR
STARTCHAR APOSTROPHE
ENCODING 39
SWIDTH 548 0
DWIDTH 8 0
BBX 8 15 0 -3
BITMAP
00
00
00
18
18
18
00
00
00
00
00
00
00
00
00
ENDCHAR
STARTCHAR LEFT PARENTHESIS
ENCODING 40
SWIDTH 548 0
DWIDTH 8 0
BBX 8 15 0 -3
BITMAP
00
00
00
0C
18
18
30
30
30
30
30
18
18
0C
00
ENDCHAR
STARTCHAR RIGHT PARENTHESIS
ENCODING 41
SWIDTH 548 0
DWIDTH 8 0
BBX 8 15 0 -3
BITMAP
00
00
00
30
18
18
0C
0C
0C
0C
0C
18
18
30
00
ENDCHAR
STARTCHAR ASTERISK
ENCODING 42
SWIDTH 548 0
DWIDTH 8 0
BBX 8 15 0 -3
BITMAP
00
00
00
00
00
36
1C
7F
1C
36
00
00
00
00
00
ENDCHAR
STARTCHAR PLUS SIGN
ENCODING 43
SWIDTH 548 0
DWIDTH 8 0
BBX 8 15 0 -3
BITMAP
00
00
00
00
00
18
18
7E
18
18
00
00
00
00
00
ENDCHAR
STARTCHAR COMMA
ENCODING 44
SWIDTH 548 0
DWIDTH 8 0
BBX 8 15 0 -3
BITMAP
00
00
00
00
00
00
00
00
00
00
1C
1C
0C
18
00
ENDCHAR
STARTCHAR HYPHEN-MINUS
ENCODING 45
SWIDTH 548 0
DWIDTH 8 0
BBX 8 15 0 -3
BITMAP
00
00
00
00
00
00
00
7E
00
00
00
00
00
00
00
ENDCHAR
STARTCHAR FULL STOP
ENCODING 46
SWIDTH 548 0
DWIDTH 8 0
BBX 8 15 0 -3
BITMAP
00
00
00
00
00
00
00
00
00
00
1C
1C
00
00
00
ENDCHAR
STARTCHAR SOLIDUS
ENCODING 47
SWIDTH 548 0
DWIDTH 8 0
BBX 8 15 0 -3
BITMAP
00
00
00
06
06
0C
0C
18
18
30
30
60
60
00
00
ENDCHAR
STARTCHAR DIGIT ZERO
ENCODING 48
SWIDTH 548 0
DWIDTH 8 0
BBX 8 15 0 -3
BITMAP
00
00
00
1E
33
37
37
33
3B
3B
33
1E
00
00
00
ENDCHAR
STARTCHAR DIGIT ONE
ENCODING 49
SWIDTH 548 0
DWIDTH 8 0
BBX 8 15 0 -3
BITMAP
00
00
00
0C
1C
7C
0C
0C
0C
0C
0C
0C
00
00
00
ENDCHAR
STARTCHAR DIGIT TWO
ENCODING 50
SWIDTH 548 0
DWIDTH 8 0
BBX 8 15 0 -3
BITMAP
00
00
00
3C
66
66
06
0C
18
30
60
7E
00
00
00
ENDCHAR
STARTCHAR DIGIT THREE
ENCODING 51
SWIDTH 548 0
DWIDTH 8 0
BBX 8 15 0 -3
BITMAP
00
00
00
3C
66
66
06
1C
06
66
66
3C
00
00
00
ENDCHAR
STARTCHAR DIGIT FOUR
ENCODING 52
SWIDTH 548 0
DWIDTH 8 0
BBX 8 15 0 -3
BITMAP
00
00
00
30
30
36
36
36
66
7F
06
06
00
00
00
ENDCHAR
STARTCHAR DIGIT FIVE
ENCODING 53
SWIDTH 548 0
DWIDTH 8 0
BBX 8 15 0 -3
BITMAP
00
00
00
7E
60
60
60
7C
06
06
0C
78
00
00
00
ENDCHAR
STARTCHAR DIGIT SIX
ENCODING 54
SWIDTH 548 0
DWIDTH 8 0
BBX 8 15 0 -3
BITMAP
00
00
00
1C
18
30
7C
66
66
66
66
3C
00
00
00
ENDCHAR
STARTCHAR DIGIT SEVEN
ENCODING 55
SWIDTH 548 0
DWIDTH 8 0
BBX 8 15 0 -3
BITMAP
00
00
00
7E
06
0C
0C
18
18
30
30
30
00
00
00
ENDCHAR
STARTCHAR DIGIT EIGHT
ENCODING 56
SWIDTH 548 0
DWIDTH 8 0
BBX 8 15 0 -3
BITMAP
00
00
00
3C
66
66
76
3C
6E
66
66
3C
00
00
00
ENDCHAR
STARTCHAR DIGIT NINE
ENCODING 57
SWIDTH 548 0
DWIDTH 8 0
BBX 8 15 0 -3
BITMAP
00
00
00
3C
66
66
66
66
3E
0C
18
38
00
00
00
ENDCHAR
STARTCHAR COLON
ENCODING 58
SWIDTH 548 0
DWIDTH 8 0
BBX 8 15 0 -3
BITMAP
00
00
00
00
00
1C
1C
00
00
00
1C
1C
00
00
00
ENDCHAR
STARTCHAR SEMICOLON
ENCODING 59
SWIDTH 548 0
DWIDTH 8 0
BBX 8 15 0 -3
BITMAP
00
00
00
00
00
1C
1C
00
00
00
1C
1C
0C
18
00
ENDCHAR
STARTCHAR LESS-THAN SIGN
ENCODING 60
SWIDTH 548 0
DWIDTH 8 0
BBX 8 15 0 -3
BITMAP
00
00
00
06
0C
18
30
60
30
18
0C
06
00
00
00
ENDCHAR
STARTCHAR EQUALS SIGN
ENCODING 61
SWIDTH 548 0
DWIDTH 8 0
BBX 8 15 0 -3
BITMAP
00
00
00
00
00
00
7E
00
7E
00
00
00
00
00
00
ENDCHAR
STARTCHAR GREATER-THAN SIGN
ENCODING 62
SWIDTH 548 0
DWIDTH 8 0
BBX 8 15 0 -3
BITMAP
00
00
00
60
30
18
0C
06
0C
18
30
60
00
00
00
ENDCHAR
STARTCHAR QUESTION MARK
ENCODING 63
SWIDTH 548 0
DWIDTH 8 0
BBX 8 15 0 -3
BITMAP
00
00
00
3C
66
66
0C
18
18
00
18
18
00
00
00
ENDCHAR
STARTCHAR COMMERCIAL AT
ENCODING 64
SWIDTH 548 0
DWIDTH 8 0
BBX 8 15 0 -3
BITMAP
00
00
00
7E
C3
C3
CF
DB
DB
CF
C0
7F
00
00
00
ENDCHAR
STARTCHAR LATIN CAPITAL LETTER A
ENCODING 65
SWIDTH 548 0
DWIDTH 8 0
BBX 8 15 0 -3
BITMAP
00
00
00
18
3C
66
66
66
7E
66
66
66
00
00
00
ENDCHAR
STARTCHAR LATIN CAPITAL LETTER B
ENCODING 66
SWIDTH 548 0
DWIDTH 8 0
BBX 8 15 0 -3
BITMAP
00
00
00
7C
66
66
66
7C
66
66
66
7C
00
00
00
ENDCHAR
STARTCHAR LATIN CAPITAL LETTER C
ENCODING 67
SWIDTH 548 0
DWIDTH 8 0
BBX 8 15 0 -3
BITMAP
00
00
00
3C
66
66
60
60
60
66
66
3C
00
00
00
ENDCHAR
STARTCHAR LATIN CAPITAL LETTER D
ENCODING 68
SWIDTH 548 0
DWIDTH 8 0
BBX 8 15 0 -3
BITMAP
00
00
00
78
6C
66
66
66
66
66
6C
78
00
00
00
ENDCHAR
STARTCHAR LATIN CAPITAL LETTER E
ENCODING 69
SWIDTH 548 0
DWIDTH 8 0
BBX 8 15 0 -3
BITMAP
00
00
00
7E
60
60
60
7C
60
60
60
7E
00
00
00
ENDCHAR
STARTCHAR LATIN CAPITAL LETTER F
ENCODING 70
SWIDTH 548 0
DWIDTH 8 0
BBX 8 15 0 -3
BITMAP
00
00
00
7E
60
60
60
7C
60
60
60
60
00
00
00
ENDCHAR
STARTCHAR LATIN CAPITAL LETTER G
ENCODING 71
SWIDTH 548 0
DWIDTH 8 0
BBX 8 15 0 -3
BITMAP
00
00
00
3C
66
66
60
60
6E
66
66
3E
00
00
00
ENDCHAR
STARTCHAR LATIN CAPITAL LETTER H
ENCODING 72
SWIDTH 548 0
DWIDTH 8 0
BBX 8 15 0 -3
BITMAP
00
00
00
66
66
66
66
7E
66
66
66
66
00
00
00
ENDCHAR
STARTCHAR LATIN CAPITAL LETTER I
ENCODING 73
SWIDTH 548 0
DWIDTH 8 0
BBX 8 15 0 -3
BITMAP
00
00
00
3C
18
18
18
18
18
18
18
3C
00
00
00
ENDCHAR
STARTCHAR LATIN CAPITAL LETTER J
ENCODING 74
SWIDTH 548 0
DWIDTH 8 0
BBX 8 15 0 -3
BITMAP
00
00
00
06
06
06
06
06
06
66
66
3C
00
00
00
ENDCHAR
STARTCHAR LATIN CAPITAL LETTER K
ENCODING 75
SWIDTH 548 0
DWIDTH 8 0
BBX 8 15 0 -3
BITMAP
00
00
00
66
66
6C
6C
78
6C
6C
66
66
00
00
00
ENDCHAR
STARTCHAR LATIN CAPITAL LETTER L
ENCODING 76
SWIDTH 548 0
DWIDTH 8 0
BBX 8 15 0 -3
BITMAP
00
00
00
60
60
60
60
60
60
60
60
7E
00
00
00
ENDCHAR
STARTCHAR LATIN CAPITAL LETTER M
ENCODING 77
SWIDTH 548 0
DWIDTH 8 0
BBX 8 15 0 -3
BITMAP
00
00
00
63
63
77
6B
6B
6B
63
63
63
00
00
00
ENDCHAR
STARTCHAR LATIN CAPITAL LETTER N
ENCODING 78
SWIDTH 548 0
DWIDTH 8 0
BBX 8 15 0 -3
BITMAP
00
00
00
63
63
73
7B
6F
67
63
63
63
00
00
00
ENDCHAR
STARTCHAR LATIN CAPITAL LETTER O
ENCODING 79
SWIDTH 548 0
DWIDTH 8 0
BBX 8 15 0 -3
BITMAP
00
00
00
3C
66
66
66
66
66
66
66
3C
00
00
00
ENDCHAR
STARTCHAR LATIN CAPITAL LETTER P
ENCODING 80
SWIDTH 548 0
DWIDTH 8 0
BBX 8 15 0 -3
BITMAP
00
00
00
7C
66
66
66
7C
60
60
60
60
00
00
00
ENDCHAR
STARTCHAR LATIN CAPITAL LETTER Q
ENCODING 81
SWIDTH 548 0
DWIDTH 8 0
BBX 8 15 0 -3
BITMAP
00
00
00
3C
66
66
66
66
66
66
66
3C
0C
06
00
ENDCHAR
STARTCHAR LATIN CAPITAL LETTER R
ENCODING 82
SWIDTH 548 0
DWIDTH 8 0
BBX 8 15 0 -3
BITMAP
00
00
00
7C
66
66
66
7C
6C
66
66
66
00
00
00
ENDCHAR
STARTCHAR LATIN CAPITAL LETTER S
ENCODING 83
SWIDTH 548 0
DWIDTH 8 0
BBX 8 15 0 -3
BITMAP
00
00
00
3C
66
60
30
18
0C
06
66
3C
00
00
00
ENDCHAR
STARTCHAR LATIN CAPITAL LETTER T
ENCODING 84
SWIDTH 548 0
DWIDTH 8 0
BBX 8 15 0 -3
BITMAP
00
00
00
7E
18
18
18
18
18
18
18
18
00
00
00
ENDCHAR
STARTCHAR LATIN CAPITAL LETTER U
ENCODING 85
SWIDTH 548 0
DWIDTH 8 0
BBX 8 15 0 -3
BITMAP
00
00
00
66
66
66
66
66
66
66
66
3C
00
00
00
ENDCHAR
STARTCHAR LATIN CAPITAL LETTER V
ENCODING 86
SWIDTH 548 0
DWIDTH 8 0
BBX 8 15 0 -3
BITMAP
00
00
00
66
66
66
66
66
66
66
3C
18
00
00
00
ENDCHAR
STARTCHAR LATIN CAPITAL LETTER W
ENCODING 87
SWIDTH 548 0
DWIDTH 8 0
BBX 8 15 0 -3
BITMAP
00
00
00
63
63
63
6B
6B
6B
36
36
36
00
00
00
ENDCHAR
STARTCHAR LATIN CAPITAL LETTER X
ENCODING 88
SWIDTH 548 0
DWIDTH 8 0
BBX 8 15 0 -3
BITMAP
00
00
00
66
66
34
18
18
2C
66
66
66
00
00
00
ENDCHAR
STARTCHAR LATIN CAPITAL LETTER Y
ENCODING 89
SWIDTH 548 0
DWIDTH 8 0
BBX 8 15 0 -3
BITMAP
00
00
00
66
66
66
66
3C
18
18
18
18
00
00
00
ENDCHAR
STARTCHAR LATIN CAPITAL LETTER Z
ENCODING 90
SWIDTH 548 0
DWIDTH 8 0
BBX 8 15 0 -3
BITMAP
00
00
00
7E
06
06
0C
18
30
60
60
7E
00
00
00
ENDCHAR
STARTCHAR LEFT SQUARE BRACKET
ENCODING 91
SWIDTH 548 0
DWIDTH 8 0
BBX 8 15 0 -3
BITMAP
00
00
00
3C
30
30
30
30
30
30
30
30
30
30
3C
ENDCHAR
STARTCHAR REVERSE SOLIDUS
ENCODING 92
SWIDTH 548 0
DWIDTH 8 0
BBX 8 15 0 -3
BITMAP
00
00
00
60
60
30
30
18
18
0C
0C
06
06
00
00
ENDCHAR
STARTCHAR RIGHT SQUARE BRACKET
ENCODING 93
SWIDTH 548 0
DWIDTH 8 0
BBX 8 15 0 -3
BITMAP
00
00
00
3C
0C
0C
0C
0C
0C
0C
0C
0C
0C
0C
3C
ENDCHAR
STARTCHAR CIRCUMFLEX ACCENT
ENCODING 94
SWIDTH 548 0
DWIDTH 8 0
BBX 8 15 0 -3
BITMAP
00
18
3C
66
00
00
00
00
00
00
00
00
00
00
00
ENDCHAR
STARTCHAR LOW LINE
ENCODING 95
SWIDTH 548 0
DWIDTH 8 0
BBX 8 15 0 -3
BITMAP
00
00
00
00
00
00
00
00
00
00
00
00
00
00
FF
ENDCHAR
STARTCHAR GRAVE ACCENT
ENCODING 96
SWIDTH 548 0
DWIDTH 8 0
BBX 8 15 0 -3
BITMAP
00
38
18
0C
00
00
00
00
00
00
00
00
00
00
00
ENDCHAR
STARTCHAR LATIN SMALL LETTER A
ENCODING 97
SWIDTH 548 0
DWIDTH 8 0
BBX 8 15 0 -3
BITMAP
00
00
00
00
00
3C
06
06
3E
66
66
3E
00
00
00
ENDCHAR
STARTCHAR LATIN SMALL LETTER B
ENCODING 98
SWIDTH 548 0
DWIDTH 8 0
BBX 8 15 0 -3
BITMAP
00
00
00
60
60
7C
66
66
66
66
66
7C
00
00
00
ENDCHAR
STARTCHAR LATIN SMALL LETTER C
ENCODING 99
SWIDTH 548 0
DWIDTH 8 0
BBX 8 15 0 -3
BITMAP
00
00
00
00
00
3C
66
60
60
60
66
3C
00
00
00
ENDCHAR
STARTCHAR LATIN SMALL LETTER D
ENCODING 100
SWIDTH 548 0
DWIDTH 8 0
BBX 8 15 0 -3
BITMAP
00
00
00
06
06
3E
66
66
66
66
66
3E
00
00
00
ENDCHAR
STARTCHAR LATIN SMALL LETTER E
ENCODING 101
SWIDTH 548 0
DWIDTH 8 0
BBX 8 15 0 -3
BITMAP
00
00
00
00
00
3C
66
66
7E
60
60
3C
00
00
00
ENDCHAR
STARTCHAR LATIN SMALL LETTER F
ENCODING 102
SWIDTH 548 0
DWIDTH 8 0
BBX 8 15 0 -3
BITMAP
00
00
00
1E
30
30
30
7E
30
30
30
30
00
00
00
ENDCHAR
STARTCHAR LATIN SMALL LETTER G
ENCODING 103
SWIDTH 548 0
DWIDTH 8 0
BBX 8 15 0 -3
BITMAP
00
00
00
00
00
3E
66
66
66
66
66
3E
06
06
7C
ENDCHAR
STARTCHAR LATIN SMALL LETTER H
ENCODING 104
SWIDTH 548 0
DWIDTH 8 0
BBX 8 15 0 -3
BITMAP
00
00
00
60
60
7C
66
66
66
66
66
66
00
00
00
ENDCHAR
STARTCHAR LATIN SMALL LETTER I
ENCODING 105
SWIDTH 548 0
DWIDTH 8 0
BBX 8 15 0 -3
BITMAP
00
00
18
18
00
78
18
18
18
18
18
7E
00
00
00
ENDCHAR
STARTCHAR LATIN SMALL LETTER J
ENCODING 106
SWIDTH 548 0
DWIDTH 8 0
BBX 8 15 0 -3
BITMAP
00
00
0C
0C
00
3C
0C
0C
0C
0C
0C
0C
0C
0C
78
ENDCHAR
STARTCHAR LATIN SMALL LETTER K
ENCODING 107
SWIDTH 548 0
DWIDTH 8 0
BBX 8 15 0 -3
BITMAP
00
00
00
60
60
66
66
6C
78
6C
66
66
00
00
00
ENDCHAR
STARTCHAR LATIN SMALL LETTER L
ENCODING 108
SWIDTH 548 0
DWIDTH 8 0
BBX 8 15 0 -3
BITMAP
00
00
00
78
18
18
18
18
18
18
18
7E
00
00
00
ENDCHAR
STARTCHAR LATIN SMALL LETTER M
ENCODING 109
SWIDTH 548 0
DWIDTH 8 0
BBX 8 15 0 -3
BITMAP
00
00
00
00
00
7E
6B
6B
6B
6B
6B
63
00
00
00
ENDCHAR
STARTCHAR LATIN SMALL LETTER N
ENCODING 110
SWIDTH 548 0
DWIDTH 8 0
BBX 8 15 0 -3
BITMAP
00
00
00
00
00
7C
66
66
66
66
66
66
00
00
00
ENDCHAR
STARTCHAR LATIN SMALL LETTER O
ENCODING 111
SWIDTH 548 0
DWIDTH 8 0
BBX 8 15 0 -3
BITMAP
00
00
00
00
00
3C
66
66
66
66
66
3C
00
00
00
ENDCHAR
STARTCHAR LATIN SMALL LETTER P
ENCODING 112
SWIDTH 548 0
DWIDTH 8 0
BBX 8 15 0 -3
BITMAP
00
00
00
00
00
7C
66
66
66
66
66
7C
60
60
60
ENDCHAR
STARTCHAR LATIN SMALL LETTER Q
ENCODING 113
SWIDTH 548 0
DWIDTH 8 0
BBX 8 15 0 -3
BITMAP
00
00
00
00
00
3E
66
66
66
66
66
3E
06
06
06
ENDCHAR
STARTCHAR LATIN SMALL LETTER R
ENCODING 114
SWIDTH 548 0
DWIDTH 8 0
BBX 8 15 0 -3
BITMAP
00
00
00
00
00
66
6E
70
60
60
60
60
00
00
00
ENDCHAR
STARTCHAR LATIN SMALL LETTER S
ENCODING 115
SWIDTH 548 0
DWIDTH 8 0
BBX 8 15 0 -3
BITMAP
00
00
00
00
00
3E
60
60
3C
06
06
7C
00
00
00
ENDCHAR
STARTCHAR LATIN SMALL LETTER T
ENCODING 116
SWIDTH 548 0
DWIDTH 8 0
BBX 8 15 0 -3
BITMAP
00
00
00
30
30
7E
30
30
30
30
30
1E
00
00
00
ENDCHAR
STARTCHAR LATIN SMALL LETTER U
ENCODING 117
SWIDTH 548 0
DWIDTH 8 0
BBX 8 15 0 -3
BITMAP
00
00
00
00
00
66
66
66
66
66
66
3E
00
00
00
ENDCHAR
STARTCHAR LATIN SMALL LETTER V
ENCODING 118
SWIDTH 548 0
DWIDTH 8 0
BBX 8 15 0 -3
BITMAP
00
00
00
00
00
66
66
66
66
66
3C
18
00
00
00
ENDCHAR
STARTCHAR LATIN SMALL LETTER W
ENCODING 119
SWIDTH 548 0
DWIDTH 8 0
BBX 8 15 0 -3
BITMAP
00
00
00
00
00
63
6B
6B
6B
6B
36
36
00
00
00
ENDCHAR
STARTCHAR LATIN SMALL LETTER X
ENCODING 120
SWIDTH 548 0
DWIDTH 8 0
BBX 8 15 0 -3
BITMAP
00
00
00
00
00
66
66
3C
18
3C
66
66
00
00
00
ENDCHAR
STARTCHAR LATIN SMALL LETTER Y
ENCODING 121
SWIDTH 548 0
DWIDTH 8 0
BBX 8 15 0 -3
BITMAP
00
00
00
00
00
66
66
66
66
66
66
3C
0C
18
F0
ENDCHAR
STARTCHAR LATIN SMALL LETTER Z
ENCODING 122
SWIDTH 548 0
DWIDTH 8 0
BBX 8 15 0 -3
BITMAP
00
00
00
00
00
7E
06
0C
18
30
60
7E
00
00
00
ENDCHAR
STARTCHAR LEFT CURLY BRACKET
ENCODING 123
SWIDTH 548 0
DWIDTH 8 0
BBX 8 15 0 -3
BITMAP
00
00
00
0C
18
18
18
30
60
30
18
18
18
0C
00
ENDCHAR
STARTCHAR VERTICAL LINE
ENCODING 124
SWIDTH 548 0
DWIDTH 8 0
BBX 8 15 0 -3
BITMAP
00
00
00
18
18
18
18
18
18
18
18
18
18
18
18
ENDCHAR
STARTCHAR RIGHT CURLY BRACKET
ENCODING 125
SWIDTH 548 0
DWIDTH 8 0
BBX 8 15 0 -3
BITMAP
00
00
00
30
18
18
18
0C
06
0C
18
18
18
30
00
ENDCHAR
STARTCHAR TILDE
ENCODING 126
SWIDTH 548 0
DWIDTH 8 0
BBX 8 15 0 -3
BITMAP
00
00
00
71
DB
8E
00
00
00
00
00
00
00
00
00
ENDCHAR
STARTCHAR <control>
ENCODING 127
SWIDTH 548 0
DWIDTH 8 0
BBX 8 15 0 -3
BITMAP
00
00
00
7E
7E
7E
7E
7E
7E
7E
7E
7E
00
00
00
ENDCHAR
STARTCHAR <control>
ENCODING 128
SWIDTH 548 0
DWIDTH 8 0
BBX 8 15 0 -3
BITMAP
00
00
00
7E
7E
7E
7E
7E
7E
7E
7E
7E
00
00
00
ENDCHAR
STARTCHAR <control>
ENCODING 129
SWIDTH 548 0
DWIDTH 8 0
BBX 8 15 0 -3
BITMAP
00
00
00
7E
7E
7E
7E
7E
7E
7E
7E
7E
00
00
00
ENDCHAR
STARTCHAR <control>
ENCODING 130
SWIDTH 548 0
DWIDTH 8 0
BBX 8 15 0 -3
BITMAP
00
00
00
7E
7E
7E
7E
7E
7E
7E
7E
7E
00
00
00
ENDCHAR
STARTCHAR <control>
ENCODING 131
SWIDTH 548 0
DWIDTH 8 0
BBX 8 15 0 -3
BITMAP
00
00
00
7E
7E
7E
7E
7E
7E
7E
7E
7E
00
00
00
ENDCHAR
STARTCHAR <control>
ENCODING 132
SWIDTH 548 0
DWIDTH 8 0
BBX 8 15 0 -3
BITMAP
00
00
00
7E
7E
7E
7E
7E
7E
7E
7E
7E
00
00
00
ENDCHAR
STARTCHAR <control>
ENCODING 133
SWIDTH 548 0
DWIDTH 8 0
BBX 8 15 0 -3
BITMAP
00
00
00
7E
7E
7E
7E
7E
7E
7E
7E
7E
00
00
00
ENDCHAR
STARTCHAR <control>
ENCODING 134
SWIDTH 548 0
DWIDTH 8 0
BBX 8 15 0 -3
BITMAP
00
00
00
7E
7E
7E
7E
7E
7E
7E
7E
7E
00
00
00
ENDCHAR
STARTCHAR <control>
ENCODING 135
SWIDTH 548 0
DWIDTH 8 0
BBX 8 15 0 -3
BITMAP
00
00
00
7E
7E
7E
7E
7E
7E
7E
7E
7E
00
00
00
ENDCHAR
STARTCHAR <control>
ENCODING 136
SWIDTH 548 0
DWIDTH 8 0
BBX 8 15 0 -3
BITMAP
00
00
00
7E
7E
7E
7E
7E
7E
7E
7E
7E
00
00
00
ENDCHAR
STARTCHAR <control>
ENCODING 137
SWIDTH 548 0
DWIDTH 8 0
BBX 8 15 0 -3
BITMAP
00
00
00
7E
7E
7E
7E
7E
7E
7E
7E
7E
00
00
00
ENDCHAR
STARTCHAR <control>
ENCODING 138
SWIDTH 548 0
DWIDTH 8 0
BBX 8 15 0 -3
BITMAP
00
00
00
7E
7E
7E
7E
7E
7E
7E
7E
7E
00
00
00
ENDCHAR
STARTCHAR <control>
ENCODING 139
SWIDTH 548 0
DWIDTH 8 0
BBX 8 15 0 -3
BITMAP
00
00
00
7E
7E
7E
7E
7E
7E
7E
7E
7E
00
00
00
ENDCHAR
STARTCHAR <control>
ENCODING 140
SWIDTH 548 0
DWIDTH 8 0
BBX 8 15 0 -3
BITMAP
00
00
00
7E
7E
7E
7E
7E
7E
7E
7E
7E
00
00
00
ENDCHAR
STARTCHAR <control>
ENCODING 141
SWIDTH 548 0
DWIDTH 8 0
BBX 8 15 0 -3
BITMAP
00
00
00
7E
7E
7E
7E
7E
7E
7E
7E
7E
00
00
00
ENDCHAR
STARTCHAR <control>
ENCODING 142
SWIDTH 548 0
DWIDTH 8 0
BBX 8 15 0 -3
BITMAP
00
00
00
7E
7E
7E
7E
7E
7E
7E
7E
7E
00
00
00
ENDCHAR
STARTCHAR <control>
ENCODING 143
SWIDTH 548 0
DWIDTH 8 0
BBX 8 15 0 -3
BITMAP
00
00
00
7E
7E
7E
7E
7E
7E
7E
7E
7E
00
00
00
ENDCHAR
STARTCHAR <control>
ENCODING 144
SWIDTH 548 0
DWIDTH 8 0
BBX 8 15 0 -3
BITMAP
00
00
00
7E
7E
7E
7E
7E
7E
7E
7E
7E
00
00
00
ENDCHAR
STARTCHAR <control>
ENCODING 145
SWIDTH 548 0
DWIDTH 8 0
BBX 8 15 0 -3
BITMAP
00
00
00
0C
18
1C
1C
00
00
00
00
00
00
00
00
ENDCHAR
STARTCHAR <control>
ENCODING 146
SWIDTH 548 0
DWIDTH 8 0
BBX 8 15 0 -3
BITMAP
00
00
00
1C
1C
0C
18
00
00
00
00
00
00
00
00
ENDCHAR
STARTCHAR <control>
ENCODING 147
SWIDTH 548 0
DWIDTH 8 0
BBX 8 15 0 -3
BITMAP
00
00
00
7E
7E
7E
7E
7E
7E
7E
7E
7E
00
00
00
ENDCHAR
STARTCHAR <control>
ENCODING 148
SWIDTH 548 0
DWIDTH 8 0
BBX 8 15 0 -3
BITMAP
00
00
00
7E
7E
7E
7E
7E
7E
7E
7E
7E
00
00
00
ENDCHAR
STARTCHAR <control>
ENCODING 149
SWIDTH 548 0
DWIDTH 8 0
BBX 8 15 0 -3
BITMAP
00
00
00
7E
7E
7E
7E
7E
7E
7E
7E
7E
00
00
00
ENDCHAR
STARTCHAR <control>
ENCODING 150
SWIDTH 548 0
DWIDTH 8 0
BBX 8 15 0 -3
BITMAP
00
00
00
7E
7E
7E
7E
7E
7E
7E
7E
7E
00
00
00
ENDCHAR
STARTCHAR <control>
ENCODING 151
SWIDTH 548 0
DWIDTH 8 0
BBX 8 15 0 -3
BITMAP
00
00
00
7E
7E
7E
7E
7E
7E
7E
7E
7E
00
00
00
ENDCHAR
STARTCHAR <control>
ENCODING 152
SWIDTH 548 0
DWIDTH 8 0
BBX 8 15 0 -3
BITMAP
00
00
00
7E
7E
7E
7E
7E
7E
7E
7E
7E
00
00
00
ENDCHAR
STARTCHAR <control>
ENCODING 153
SWIDTH 548 0
DWIDTH 8 0
BBX 8 15 0 -3
BITMAP
00
00
00
7E
7E
7E
7E
7E
7E
7E
7E
7E
00
00
00
ENDCHAR
STARTCHAR <control>
ENCODING 154
SWIDTH 548 0
DWIDTH 8 0
BBX 8 15 0 -3
BITMAP
00
00
00
7E
7E
7E
7E
7E
7E
7E
7E
7E
00
00
00
ENDCHAR
STARTCHAR <control>
ENCODING 155
SWIDTH 548 0
DWIDTH 8 0
BBX 8 15 0 -3
BITMAP
00
00
00
7E
7E
7E
7E
7E
7E
7E
7E
7E
00
00
00
ENDCHAR
STARTCHAR <control>
ENCODING 156
SWIDTH 548 0
DWIDTH 8 0
BBX 8 15 0 -3
BITMAP
00
00
00
7E
7E
7E
7E
7E
7E
7E
7E
7E
00
00
00
ENDCHAR
STARTCHAR <control>
ENCODING 157
SWIDTH 548 0
DWIDTH 8 0
BBX 8 15 0 -3
BITMAP
00
00
00
7E
7E
7E
7E
7E
7E
7E
7E
7E
00
00
00
ENDCHAR
STARTCHAR <control>
ENCODING 158
SWIDTH 548 0
DWIDTH 8 0
BBX 8 15 0 -3
BITMAP
00
00
00
7E
7E
7E
7E
7E
7E
7E
7E
7E
00
00
00
ENDCHAR
STARTCHAR <control>
ENCODING 159
SWIDTH 548 0
DWIDTH 8 0
BBX 8 15 0 -3
BITMAP
00
00
00
7E
7E
7E
7E
7E
7E
7E
7E
7E
00
00
00
ENDCHAR
STARTCHAR NO-BREAK SPACE
ENCODING 160
SWIDTH 548 0
DWIDTH 8 0
BBX 8 15 0 -3
BITMAP
00
00
00
00
00
00
00
00
00
00
00
00
00
00
00
ENDCHAR
STARTCHAR INVERTED EXCLAMATION MARK
ENCODING 161
SWIDTH 548 0
DWIDTH 8 0
BBX 8 15 0 -3
BITMAP
00
00
00
00
00
00
18
18
00
18
18
3C
3C
3C
18
ENDCHAR
STARTCHAR CENT SIGN
ENCODING 162
SWIDTH 548 0
DWIDTH 8 0
BBX 8 15 0 -3
BITMAP
00
00
00
18
18
3C
66
60
60
66
3C
18
18
00
00
ENDCHAR
STARTCHAR POUND SIGN
ENCODING 163
SWIDTH 548 0
DWIDTH 8 0
BBX 8 15 0 -3
BITMAP
00
00
00
3C
66
60
60
FC
60
60
C0
FE
00
00
00
ENDCHAR
STARTCHAR CURRENCY SIGN
ENCODING 164
SWIDTH 548 0
DWIDTH 8 0
BBX 8 15 0 -3
BITMAP
00
00
00
00
66
3C
66
66
3C
66
00
00
00
00
00
ENDCHAR
STARTCHAR YEN SIGN
ENCODING 165
SWIDTH 548 0
DWIDTH 8 0
BBX 8 15 0 -3
BITMAP
00
00
00
66
66
66
3C
7E
18
7E
18
18
00
00
00
ENDCHAR
STARTCHAR BROKEN BAR
ENCODING 166
SWIDTH 548 0
DWIDTH 8 0
BBX 8 15 0 -3
BITMAP
00
00
00
18
18
18
18
18
00
00
18
18
18
18
18
ENDCHAR
STARTCHAR SECTION SIGN
ENCODING 167
SWIDTH 548 0
DWIDTH 8 0
BBX 8 15 0 -3
BITMAP
00
00
00
3C
66
60
38
3C
66
66
3C
1C
06
66
3C
ENDCHAR
STARTCHAR DIAERESIS
ENCODING 168
SWIDTH 548 0
DWIDTH 8 0
BBX 8 15 0 -3
BITMAP
00
00
66
66
00
00
00
00
00
00
00
00
00
00
00
ENDCHAR
STARTCHAR COPYRIGHT SIGN
ENCODING 169
SWIDTH 548 0
DWIDTH 8 0
BBX 8 15 0 -3
BITMAP
00
00
00
7E
C3
99
A5
A1
A5
99
C3
7E
00
00
00
ENDCHAR
STARTCHAR FEMININE ORDINAL INDICATOR
ENCODING 170
SWIDTH 548 0
DWIDTH 8 0
BBX 8 15 0 -3
BITMAP
00
00
00
3C
06
3E
66
3E
00
7E
00
00
00
00
00
ENDCHAR
STARTCHAR LEFT-POINTING DOUBLE ANGLE QUOTATION MARK
ENCODING 171
SWIDTH 548 0
DWIDTH 8 0
BBX 8 15 0 -3
BITMAP
00
00
00
00
00
00
00
33
66
CC
66
33
00
00
00
ENDCHAR
STARTCHAR NOT SIGN
ENCODING 172
SWIDTH 548 0
DWIDTH 8 0
BBX 8 15 0 -3
BITMAP
00
00
00
00
00
00
00
7E
06
06
00
00
00
00
00
ENDCHAR
STARTCHAR SOFT HYPHEN
ENCODING 173
SWIDTH 548 0
DWIDTH 8 0
BBX 8 15 0 -3
BITMAP
00
00
00
00
00
00
00
7E
00
00
00
00
00
00
00
ENDCHAR
STARTCHAR REGISTERED SIGN
ENCODING 174
SWIDTH 548 0
DWIDTH 8 0
BBX 8 15 0 -3
BITMAP
00
00
00
7E
C3
B9
A5
A5
B9
A5
C3
7E
00
00
00
ENDCHAR
STARTCHAR MACRON
ENCODING 175
SWIDTH 548 0
DWIDTH 8 0
BBX 8 15 0 -3
BITMAP
FF
00
00
00
00
00
00
00
00
00
00
00
00
00
00
ENDCHAR
STARTCHAR DEGREE SIGN
ENCODING 176
SWIDTH 548 0
DWIDTH 8 0
BBX 8 15 0 -3
BITMAP
00
00
3C
66
66
3C
00
00
00
00
00
00
00
00
00
ENDCHAR
STARTCHAR PLUS-MINUS SIGN
ENCODING 177
SWIDTH 548 0
DWIDTH 8 0
BBX 8 15 0 -3
BITMAP
00
00
00
00
00
18
18
7E
18
18
00
7E
00
00
00
ENDCHAR
STARTCHAR SUPERSCRIPT TWO
ENCODING 178
SWIDTH 548 0
DWIDTH 8 0
BBX 8 15 0 -3
BITMAP
00
00
00
38
0C
18
30
3C
00
00
00
00
00
00
00
ENDCHAR
STARTCHAR SUPERSCRIPT THREE
ENCODING 179
SWIDTH 548 0
DWIDTH 8 0
BBX 8 15 0 -3
BITMAP
00
00
00
38
0C
18
0C
38
00
00
00
00
00
00
00
ENDCHAR
STARTCHAR ACUTE ACCENT
ENCODING 180
SWIDTH 548 0
DWIDTH 8 0
BBX 8 15 0 -3
BITMAP
00
1C
18
30
00
00
00
00
00
00
00
00
00
00
00
ENDCHAR
STARTCHAR MICRO SIGN
ENCODING 181
SWIDTH 548 0
DWIDTH 8 0
BBX 8 15 0 -3
BITMAP
00
00
00
00
00
66
66
66
66
66
66
7B
60
60
C0
ENDCHAR
STARTCHAR PILCROW SIGN
ENCODING 182
SWIDTH 548 0
DWIDTH 8 0
BBX 8 15 0 -3
BITMAP
00
00
00
1F
3E
7E
7E
7E
3E
1E
06
06
06
06
06
ENDCHAR
STARTCHAR MIDDLE DOT
ENCODING 183
SWIDTH 548 0
DWIDTH 8 0
BBX 8 15 0 -3
BITMAP
00
00
00
00
00
00
1C
1C
00
00
00
00
00
00
00
ENDCHAR
STARTCHAR CEDILLA
ENCODING 184
SWIDTH 548 0
DWIDTH 8 0
BBX 8 15 0 -3
BITMAP
00
00
00
00
00
00
00
00
00
00
00
00
18
0C
38
ENDCHAR
STARTCHAR SUPERSCRIPT ONE
ENCODING 185
SWIDTH 548 0
DWIDTH 8 0
BBX 8 15 0 -3
BITMAP
00
00
00
18
38
18
18
18
00
00
00
00
00
00
00
ENDCHAR
STARTCHAR MASCULINE ORDINAL INDICATOR
ENCODING 186
SWIDTH 548 0
DWIDTH 8 0
BBX 8 15 0 -3
BITMAP
00
00
00
3C
66
66
66
3C
00
7E
00
00
00
00
00
ENDCHAR
STARTCHAR RIGHT-POINTING DOUBLE ANGLE QUOTATION MARK
ENCODING 187
SWIDTH 548 0
DWIDTH 8 0
BBX 8 15 0 -3
BITMAP
00
00
00
00
00
00
00
CC
66
33
66
CC
00
00
00
ENDCHAR
STARTCHAR VULGAR FRACTION ONE QUARTER
ENCODING 188
SWIDTH 548 0
DWIDTH 8 0
BBX 8 15 0 -3
BITMAP
00
00
60
E0
63
66
6C
18
37
6F
DB
1F
03
00
00
ENDCHAR
STARTCHAR VULGAR FRACTION ONE HALF
ENCODING 189
SWIDTH 548 0
DWIDTH 8 0
BBX 8 15 0 -3
BITMAP
00
00
60
E0
63
66
6C
18
3E
63
C6
0C
0F
00
00
ENDCHAR
STARTCHAR VULGAR FRACTION THREE QUARTERS
ENCODING 190
SWIDTH 548 0
DWIDTH 8 0
BBX 8 15 0 -3
BITMAP
00
00
E0
30
63
36
EC
18
37
6F
DB
1F
03
00
00
ENDCHAR
STARTCHAR INVERTED QUESTION MARK
ENCODING 191
SWIDTH 548 0
DWIDTH 8 0
BBX 8 15 0 -3
BITMAP
00
00
00
00
00
00
18
18
00
18
18
30
66
66
3C
ENDCHAR
STARTCHAR LATIN CAPITAL LETTER A WITH GRAVE
ENCODING 192
SWIDTH 548 0
DWIDTH 8 0
BBX 8 15 0 -3
BITMAP
30
18
00
18
3C
66
66
66
7E
66
66
66
00
00
00
ENDCHAR
STARTCHAR LATIN CAPITAL LETTER A WITH ACUTE
ENCODING 193
SWIDTH 548 0
DWIDTH 8 0
BBX 8 15 0 -3
BITMAP
0C
18
00
18
3C
66
66
66
7E
66
66
66
00
00
00
ENDCHAR
STARTCHAR LATIN CAPITAL LETTER A WITH CIRCUMFLEX
ENCODING 194
SWIDTH 548 0
DWIDTH 8 0
BBX 8 15 0 -3
BITMAP
3C
66
00
18
3C
66
66
66
7E
66
66
66
00
00
00
ENDCHAR
STARTCHAR LATIN CAPITAL LETTER A WITH TILDE
ENCODING 195
SWIDTH 548 0
DWIDTH 8 0
BBX 8 15 0 -3
BITMAP
3B
6E
00
18
3C
66
66
66
7E
66
66
66
00
00
00
ENDCHAR
STARTCHAR LATIN CAPITAL LETTER A WITH DIAERESIS
ENCODING 196
SWIDTH 548 0
DWIDTH 8 0
BBX 8 15 0 -3
BITMAP
66
66
00
18
3C
66
66
66
7E
66
66
66
00
00
00
ENDCHAR
STARTCHAR LATIN CAPITAL LETTER A WITH RING ABOVE
ENCODING 197
SWIDTH 548 0
DWIDTH 8 0
BBX 8 15 0 -3
BITMAP
3C
66
3C
18
3C
66
66
66
7E
66
66
66
00
00
00
ENDCHAR
STARTCHAR LATIN CAPITAL LETTER AE
ENCODING 198
SWIDTH 548 0
DWIDTH 8 0
BBX 8 15 0 -3
BITMAP
00
00
00
0F
1C
3C
6C
6F
7C
6C
6C
6F
00
00
00
ENDCHAR
STARTCHAR LATIN CAPITAL LETTER C WITH CEDILLA
ENCODING 199
SWIDTH 548 0
DWIDTH 8 0
BBX 8 15 0 -3
BITMAP
00
00
00
3C
66
66
60
60
60
66
66
3C
18
0C
38
ENDCHAR
STARTCHAR LATIN CAPITAL LETTER E WITH GRAVE
ENCODING 200
SWIDTH 548 0
DWIDTH 8 0
BBX 8 15 0 -3
BITMAP
30
18
00
7E
60
60
60
7C
60
60
60
7E
00
00
00
ENDCHAR
STARTCHAR LATIN CAPITAL LETTER E WITH ACUTE
ENCODING 201
SWIDTH 548 0
DWIDTH 8 0
BBX 8 15 0 -3
BITMAP
0C
18
00
7E
60
60
60
7C
60
60
60
7E
00
00
00
ENDCHAR
STARTCHAR LATIN CAPITAL LETTER E WITH CIRCUMFLEX
ENCODING 202
SWIDTH 548 0
DWIDTH 8 0
BBX 8 15 0 -3
BITMAP
3C
66
00
7E
60
60
60
7C
60
60
60
7E
00
00
00
ENDCHAR
STARTCHAR LATIN CAPITAL LETTER E WITH DIAERESIS
ENCODING 203
SWIDTH 548 0
DWIDTH 8 0
BBX 8 15 0 -3
BITMAP
66
66
00
7E
60
60
60
7C
60
60
60
7E
00
00
00
ENDCHAR
STARTCHAR LATIN CAPITAL LETTER I WITH GRAVE
ENCODING 204
SWIDTH 548 0
DWIDTH 8 0
BBX 8 15 0 -3
BITMAP
30
18
00
3C
18
18
18
18
18
18
18
3C
00
00
00
ENDCHAR
STARTCHAR LATIN CAPITAL LETTER I WITH ACUTE
ENCODING 205
SWIDTH 548 0
DWIDTH 8 0
BBX 8 15 0 -3
BITMAP
0C
18
00
3C
18
18
18
18
18
18
18
3C
00
00
00
ENDCHAR
STARTCHAR LATIN CAPITAL LETTER I WITH CIRCUMFLEX
ENCODING 206
SWIDTH 548 0
DWIDTH 8 0
BBX 8 15 0 -3
BITMAP
3C
66
00
3C
18
18
18
18
18
18
18
3C
00
00
00
ENDCHAR
STARTCHAR LATIN CAPITAL LETTER I WITH DIAERESIS
ENCODING 207
SWIDTH 548 0
DWIDTH 8 0
BBX 8 15 0 -3
BITMAP
66
66
00
3C
18
18
18
18
18
18
18
3C
00
00
00
ENDCHAR
STARTCHAR LATIN CAPITAL LETTER ETH
ENCODING 208
SWIDTH 548 0
DWIDTH 8 0
BBX 8 15 0 -3
BITMAP
00
00
00
78
6C
66
66
F6
66
66
6C
78
00
00
00
ENDCHAR
STARTCHAR LATIN CAPITAL LETTER N WITH TILDE
ENCODING 209
SWIDTH 548 0
DWIDTH 8 0
BBX 8 15 0 -3
BITMAP
3B
6E
00
63
63
73
7B
6F
67
63
63
63
00
00
00
ENDCHAR
STARTCHAR LATIN CAPITAL LETTER O WITH GRAVE
ENCODING 210
SWIDTH 548 0
DWIDTH 8 0
BBX 8 15 0 -3
BITMAP
30
18
00
3C
66
66
66
66
66
66
66
3C
00
00
00
ENDCHAR
STARTCHAR LATIN CAPITAL LETTER O WITH ACUTE
ENCODING 211
SWIDTH 548 0
DWIDTH 8 0
BBX 8 15 0 -3
BITMAP
0C
18
00
3C
66
66
66
66
66
66
66
3C
00
00
00
ENDCHAR
STARTCHAR LATIN CAPITAL LETTER O WITH CIRCUMFLEX
ENCODING 212
SWIDTH 548 0
DWIDTH 8 0
BBX 8 15 0 -3
BITMAP
3C
66
00
3C
66
66
66
66
66
66
66
3C
00
00
00
ENDCHAR
STARTCHAR LATIN CAPITAL LETTER O WITH TILDE
ENCODING 213
SWIDTH 548 0
DWIDTH 8 0
BBX 8 15 0 -3
BITMAP
3B
6E
00
3C
66
66
66
66
66
66
66
3C
00
00
00
ENDCHAR
STARTCHAR LATIN CAPITAL LETTER O WITH DIAERESIS
ENCODING 214
SWIDTH 548 0
DWIDTH 8 0
BBX 8 15 0 -3
BITMAP
66
66
00
3C
66
66
66
66
66
66
66
3C
00
00
00
ENDCHAR
STARTCHAR MULTIPLICATION SIGN
ENCODING 215
SWIDTH 548 0
DWIDTH 8 0
BBX 8 15 0 -3
BITMAP
00
00
00
00
42
66
3C
18
3C
66
42
00
00
00
00
ENDCHAR
STARTCHAR LATIN CAPITAL LETTER O WITH STROKE
ENCODING 216
SWIDTH 548 0
DWIDTH 8 0
BBX 8 15 0 -3
BITMAP
00
00
00
3E
66
6E
6E
7E
76
76
66
7C
00
00
00
ENDCHAR
STARTCHAR LATIN CAPITAL LETTER U WITH GRAVE
ENCODING 217
SWIDTH 548 0
DWIDTH 8 0
BBX 8 15 0 -3
BITMAP
30
18
00
66
66
66
66
66
66
66
66
3C
00
00
00
ENDCHAR
STARTCHAR LATIN CAPITAL LETTER U WITH ACUTE
ENCODING 218
SWIDTH 548 0
DWIDTH 8 0
BBX 8 15 0 -3
BITMAP
0C
18
00
66
66
66
66
66
66
66
66
3C
00
00
00
ENDCHAR
STARTCHAR LATIN CAPITAL LETTER U WITH CIRCUMFLEX
ENCODING 219
SWIDTH 548 0
DWIDTH 8 0
BBX 8 15 0 -3
BITMAP
3C
66
00
66
66
66
66
66
66
66
66
3C
00
00
00
ENDCHAR
STARTCHAR LATIN CAPITAL LETTER U WITH DIAERESIS
ENCODING 220
SWIDTH 548 0
DWIDTH 8 0
BBX 8 15 0 -3
BITMAP
66
66
00
66
66
66
66
66
66
66
66
3C
00
00
00
ENDCHAR
STARTCHAR LATIN CAPITAL LETTER Y WITH ACUTE
ENCODING 221
SWIDTH 548 0
DWIDTH 8 0
BBX 8 15 0 -3
BITMAP
0C
18
00
66
66
66
66
3C
18
18
18
18
00
00
00
ENDCHAR
STARTCHAR LATIN CAPITAL LETTER THORN
ENCODING 222
SWIDTH 548 0
DWIDTH 8 0
BBX 8 15 0 -3
BITMAP
00
00
00
60
60
7C
66
66
66
7C
60
60
00
00
00
ENDCHAR
STARTCHAR LATIN SMALL LETTER SHARP S
ENCODING 223
SWIDTH 548 0
DWIDTH 8 0
BBX 8 15 0 -3
BITMAP
00
00
00
38
6C
6C
6C
66
66
66
66
6C
00
00
00
ENDCHAR
STARTCHAR LATIN SMALL LETTER A WITH GRAVE
ENCODING 224
SWIDTH 548 0
DWIDTH 8 0
BBX 8 15 0 -3
BITMAP
00
70
30
18
00
3C
06
06
3E
66
66
3E
00
00
00
ENDCHAR
STARTCHAR LATIN SMALL LETTER A WITH ACUTE
ENCODING 225
SWIDTH 548 0
DWIDTH 8 0
BBX 8 15 0 -3
BITMAP
00
0E
0C
18
00
3C
06
06
3E
66
66
3E
00
00
00
ENDCHAR
STARTCHAR LATIN SMALL LETTER A WITH CIRCUMFLEX
ENCODING 226
SWIDTH 548 0
DWIDTH 8 0
BBX 8 15 0 -3
BITMAP
00
18
3C
66
00
3C
06
06
3E
66
66
3E
00
00
00
ENDCHAR
STARTCHAR LATIN SMALL LETTER A WITH TILDE
ENCODING 227
SWIDTH 548 0
DWIDTH 8 0
BBX 8 15 0 -3
BITMAP
00
71
DB
8E
00
3C
06
06
3E
66
66
3E
00
00
00
ENDCHAR
STARTCHAR LATIN SMALL LETTER A WITH DIAERESIS
ENCODING 228
SWIDTH 548 0
DWIDTH 8 0
BBX 8 15 0 -3
BITMAP
00
00
66
66
00
3C
06
06
3E
66
66
3E
00
00
00
ENDCHAR
STARTCHAR LATIN SMALL LETTER A WITH RING ABOVE
ENCODING 229
SWIDTH 548 0
DWIDTH 8 0
BBX 8 15 0 -3
BITMAP
00
3C
66
3C
00
3C
06
06
3E
66
66
3E
00
00
00
ENDCHAR
STARTCHAR LATIN SMALL LETTER AE
ENCODING 230
SWIDTH 548 0
DWIDTH 8 0
BBX 8 15 0 -3
BITMAP
00
00
00
00
00
6E
1B
1B
7F
D8
D8
77
00
00
00
ENDCHAR
STARTCHAR LATIN SMALL LETTER C WITH CEDILLA
ENCODING 231
SWIDTH 548 0
DWIDTH 8 0
BBX 8 15 0 -3
BITMAP
00
00
00
00
00
3C
66
60
60
60
66
3C
18
0C
38
ENDCHAR
STARTCHAR LATIN SMALL LETTER E WITH GRAVE
ENCODING 232
SWIDTH 548 0
DWIDTH 8 0
BBX 8 15 0 -3
BITMAP
00
70
30
18
00
3C
66
66
7E
60
60
3C
00
00
00
ENDCHAR
STARTCHAR LATIN SMALL LETTER E WITH ACUTE
ENCODING 233
SWIDTH 548 0
DWIDTH 8 0
BBX 8 15 0 -3
BITMAP
00
0E
0C
18
00
3C
66
66
7E
60
60
3C
00
00
00
ENDCHAR
STARTCHAR LATIN SMALL LETTER E WITH CIRCUMFLEX
ENCODING 234
SWIDTH 548 0
DWIDTH 8 0
BBX 8 15 0 -3
BITMAP
00
18
3C
66
00
3C
66
66
7E
60
60
3C
00
00
00
ENDCHAR
STARTCHAR LATIN SMALL LETTER E WITH DIAERESIS
ENCODING 235
SWIDTH 548 0
DWIDTH 8 0
BBX 8 15 0 -3
BITMAP
00
00
66
66
00
3C
66
66
7E
60
60
3C
00
00
00
ENDCHAR
STARTCHAR LATIN SMALL LETTER I WITH GRAVE
ENCODING 236
SWIDTH 548 0
DWIDTH 8 0
BBX 8 15 0 -3
BITMAP
00
70
30
18
00
78
18
18
18
18
18
7E
00
00
00
ENDCHAR
STARTCHAR LATIN SMALL LETTER I WITH ACUTE
ENCODING 237
SWIDTH 548 0
DWIDTH 8 0
BBX 8 15 0 -3
BITMAP
00
0E
0C
18
00
78
18
18
18
18
18
7E
00
00
00
ENDCHAR
STARTCHAR LATIN SMALL LETTER I WITH CIRCUMFLEX
ENCODING 238
SWIDTH 548 0
DWIDTH 8 0
BBX 8 15 0 -3
BITMAP
00
18
3C
66
00
78
18
18
18
18
18
7E
00
00
00
ENDCHAR
STARTCHAR LATIN SMALL LETTER I WITH DIAERESIS
ENCODING 239
SWIDTH 548 0
DWIDTH 8 0
BBX 8 15 0 -3
BITMAP
00
00
66
66
00
78
18
18
18
18
18
7E
00
00
00
ENDCHAR
STARTCHAR LATIN SMALL LETTER ETH
ENCODING 240
SWIDTH 548 0
DWIDTH 8 0
BBX 8 15 0 -3
BITMAP
00
00
00
36
18
6C
1E
66
66
66
66
3C
00
00
00
ENDCHAR
STARTCHAR LATIN SMALL LETTER N WITH TILDE
ENCODING 241
SWIDTH 548 0
DWIDTH 8 0
BBX 8 15 0 -3
BITMAP
00
71
DB
8E
00
7C
66
66
66
66
66
66
00
00
00
ENDCHAR
STARTCHAR LATIN SMALL LETTER O WITH GRAVE
ENCODING 242
SWIDTH 548 0
DWIDTH 8 0
BBX 8 15 0 -3
BITMAP
00
70
30
18
00
3C
66
66
66
66
66
3C
00
00
00
ENDCHAR
STARTCHAR LATIN SMALL LETTER O WITH ACUTE
ENCODING 243
SWIDTH 548 0
DWIDTH 8 0
BBX 8 15 0 -3
BITMAP
00
0E
0C
18
00
3C
66
66
66
66
66
3C
00
00
00
ENDCHAR
STARTCHAR LATIN SMALL LETTER O WITH CIRCUMFLEX
ENCODING 244
SWIDTH 548 0
DWIDTH 8 0
BBX 8 15 0 -3
BITMAP
00
18
3C
66
00
3C
66
66
66
66
66
3C
00
00
00
ENDCHAR
STARTCHAR LATIN SMALL LETTER O WITH TILDE
ENCODING 245
SWIDTH 548 0
DWIDTH 8 0
BBX 8 15 0 -3
BITMAP
00
71
DB
8E
00
3C
66
66
66
66
66
3C
00
00
00
ENDCHAR
STARTCHAR LATIN SMALL LETTER O WITH DIAERESIS
ENCODING 246
SWIDTH 548 0
DWIDTH 8 0
BBX 8 15 0 -3
BITMAP
00
00
66
66
00
3C
66
66
66
66
66
3C
00
00
00
ENDCHAR
STARTCHAR DIVISION SIGN
ENCODING 247
SWIDTH 548 0
DWIDTH 8 0
BBX 8 15 0 -3
BITMAP
00
00
00
00
18
18
00
7E
00
18
18
00
00
00
00
ENDCHAR
STARTCHAR LATIN SMALL LETTER O WITH STROKE
ENCODING 248
SWIDTH 548 0
DWIDTH 8 0
BBX 8 15 0 -3
BITMAP
00
00
00
00
00
3E
66
6E
7E
76
66
7C
00
00
00
ENDCHAR
STARTCHAR LATIN SMALL LETTER U WITH GRAVE
ENCODING 249
SWIDTH 548 0
DWIDTH 8 0
BBX 8 15 0 -3
BITMAP
00
70
30
18
00
66
66
66
66
66
66
3E
00
00
00
ENDCHAR
STARTCHAR LATIN SMALL LETTER U WITH ACUTE
ENCODING 250
SWIDTH 548 0
DWIDTH 8 0
BBX 8 15 0 -3
BITMAP
00
0E
0C
18
00
66
66
66
66
66
66
3E
00
00
00
ENDCHAR
STARTCHAR LATIN SMALL LETTER U WITH CIRCUMFLEX
ENCODING 251
SWIDTH 548 0
DWIDTH 8 0
BBX 8 15 0 -3
BITMAP
00
18
3C
66
00
66
66
66
66
66
66
3E
00
00
00
ENDCHAR
STARTCHAR LATIN SMALL LETTER U WITH DIAERESIS
ENCODING 252
SWIDTH 548 0
DWIDTH 8 0
BBX 8 15 0 -3
BITMAP
00
00
66
66
00
66
66
66
66
66
66
3E
00
00
00
ENDCHAR
STARTCHAR LATIN SMALL LETTER Y WITH ACUTE
ENCODING 253
SWIDTH 548 0
DWIDTH 8 0
BBX 8 15 0 -3
BITMAP
00
0E
0C
18
00
66
66
66
66
66
66
3C
0C
18
F0
ENDCHAR
STARTCHAR LATIN SMALL LETTER THORN
ENCODING 254
SWIDTH 548 0
DWIDTH 8 0
BBX 8 15 0 -3
BITMAP
00
00
00
60
60
60
7C
66
66
66
66
7C
60
60
60
ENDCHAR
STARTCHAR LATIN SMALL LETTER Y WITH DIAERESIS
ENCODING 255
SWIDTH 548 0
DWIDTH 8 0
BBX 8 15 0 -3
BITMAP
00
00
66
66
00
66
66
66
66
66
66
3C
0C
18
F0
ENDCHAR
STARTCHAR BOX DRAWINGS LIGHT HORIZONTAL
ENCODING 9472
SWIDTH 548 0
DWIDTH 8 0
BBX 8 15 0 -3
BITMAP
00
00
00
00
00
00
00
FF
00
00
00
00
00
00
00
ENDCHAR
STARTCHAR BOX DRAWINGS HEAVY HORIZONTAL
ENCODING 9473
SWIDTH 548 0
DWIDTH 8 0
BBX 8 15 0 -3
BITMAP
00
00
00
00
00
00
00
FF
FF
00
00
00
00
00
00
ENDCHAR
STARTCHAR BOX DRAWINGS LIGHT VERTICAL
ENCODING 9474
SWIDTH 548 0
DWIDTH 8 0
BBX 8 15 0 -3
BITMAP
08
08
08
08
08
08
08
08
08
08
08
08
08
08
08
ENDCHAR
STARTCHAR BOX DRAWINGS HEAVY VERTICAL
ENCODING 9475
SWIDTH 548 0
DWIDTH 8 0
BBX 8 15 0 -3
BITMAP
18
18
18
18
18
18
18
18
18
18
18
18
18
18
18
ENDCHAR
STARTCHAR BOX DRAWINGS LIGHT TRIPLE DASH HORIZONTAL
ENCODING 9476
SWIDTH 548 0
DWIDTH 8 0
BBX 8 15 0 -3
BITMAP
00
00
00
00
00
00
00
2A
00
00
00
00
00
00
00
ENDCHAR
STARTCHAR BOX DRAWINGS HEAVY TRIPLE DASH HORIZONTAL
ENCODING 9477
SWIDTH 548 0
DWIDTH 8 0
BBX 8 15 0 -3
BITMAP
00
00
00
00
00
00
00
2A
2A
00
00
00
00
00
00
ENDCHAR
STARTCHAR BOX DRAWINGS LIGHT TRIPLE DASH VERTICAL
ENCODING 9478
SWIDTH 548 0
DWIDTH 8 0
BBX 8 15 0 -3
BITMAP
00
08
08
08
00
00
08
08
08
00
00
08
08
08
00
ENDCHAR
STARTCHAR BOX DRAWINGS HEAVY TRIPLE DASH VERTICAL
ENCODING 9479
SWIDTH 548 0
DWIDTH 8 0
BBX 8 15 0 -3
BITMAP
00
18
18
18
00
00
18
18
18
00
00
18
18
18
00
ENDCHAR
STARTCHAR BOX DRAWINGS LIGHT QUADRUPLE DASH HORIZONTAL
ENCODING 9480
SWIDTH 548 0
DWIDTH 8 0
BBX 8 15 0 -3
BITMAP
00
00
00
00
00
00
00
55
00
00
00
00
00
00
00
ENDCHAR
STARTCHAR BOX DRAWINGS HEAVY QUADRUPLE DASH HORIZONTAL
ENCODING 9481
SWIDTH 548 0
DWIDTH 8 0
BBX 8 15 0 -3
BITMAP
00
00
00
00
00
00
00
55
55
00
00
00
00
00
00
ENDCHAR
STARTCHAR BOX DRAWINGS LIGHT QUADRUPLE DASH VERTICAL
ENCODING 9482
SWIDTH 548 0
DWIDTH 8 0
BBX 8 15 0 -3
BITMAP
08
08
00
00
08
08
00
00
08
08
00
00
08
08
00
ENDCHAR
STARTCHAR BOX DRAWINGS HEAVY QUADRUPLE DASH VERTICAL
ENCODING 9483
SWIDTH 548 0
DWIDTH 8 0
BBX 8 15 0 -3
BITMAP
18
18
00
00
18
18
00
00
18
18
00
00
18
18
00
ENDCHAR
STARTCHAR BOX DRAWINGS LIGHT DOWN AND RIGHT
ENCODING 9484
SWIDTH 548 0
DWIDTH 8 0
BBX 8 15 0 -3
BITMAP
00
00
00
00
00
00
00
0F
08
08
08
08
08
08
08
ENDCHAR
STARTCHAR BOX DRAWINGS DOWN LIGHT AND RIGHT HEAVY
ENCODING 9485
SWIDTH 548 0
DWIDTH 8 0
BBX 8 15 0 -3
BITMAP
00
00
00
00
00
00
00
0F
0F
08
08
08
08
08
08
ENDCHAR
STARTCHAR BOX DRAWINGS DOWN HEAVY AND RIGHT LIGHT
ENCODING 9486
SWIDTH 548 0
DWIDTH 8 0
BBX 8 15 0 -3
BITMAP
00
00
00
00
00
00
00
1F
18
18
18
18
18
18
18
ENDCHAR
STARTCHAR BOX DRAWINGS HEAVY DOWN AND RIGHT
ENCODING 9487
SWIDTH 548 0
DWIDTH 8 0
BBX 8 15 0 -3
BITMAP
00
00
00
00
00
00
00
1F
1F
18
18
18
18
18
18
ENDCHAR
STARTCHAR BOX DRAWINGS LIGHT DOWN AND LEFT
ENCODING 9488
SWIDTH 548 0
DWIDTH 8 0
BBX 8 15 0 -3
BITMAP
00
00
00
00
00
00
00
F8
08
08
08
08
08
08
08
ENDCHAR
STARTCHAR BOX DRAWINGS DOWN LIGHT AND LEFT HEAVY
ENCODING 9489
SWIDTH 548 0
DWIDTH 8 0
BBX 8 15 0 -3
BITMAP
00
00
00
00
00
00
00
F8
F8
08
08
08
08
08
08
ENDCHAR
STARTCHAR BOX DRAWINGS DOWN HEAVY AND LEFT LIGHT
ENCODING 9490
SWIDTH 548 0
DWIDTH 8 0
BBX 8 15 0 -3
BITMAP
00
00
00
00
00
00
00
F8
18
18
18
18
18
18
18
ENDCHAR
STARTCHAR BOX DRAWINGS HEAVY DOWN AND LEFT
ENCODING 9491
SWIDTH 548 0
DWIDTH 8 0
BBX 8 15 0 -3
BITMAP
00
00
00
00
00
00
00
F8
F8
18
18
18
18
18
18
ENDCHAR
STARTCHAR BOX DRAWINGS LIGHT UP AND RIGHT
ENCODING 9492
SWIDTH 548 0
DWIDTH 8 0
BBX 8 15 0 -3
BITMAP
08
08
08
08
08
08
08
0F
00
00
00
00
00
00
00
ENDCHAR
STARTCHAR BOX DRAWINGS UP LIGHT AND RIGHT HEAVY
ENCODING 9493
SWIDTH 548 0
DWIDTH 8 0
BBX 8 15 0 -3
BITMAP
08
08
08
08
08
08
08
0F
0F
00
00
00
00
00
00
ENDCHAR
STARTCHAR BOX DRAWINGS UP HEAVY AND RIGHT LIGHT
ENCODING 9494
SWIDTH 548 0
DWIDTH 8 0
BBX 8 15 0 -3
BITMAP
18
18
18
18
18
18
18
1F
00
00
00
00
00
00
00
ENDCHAR
STARTCHAR BOX DRAWINGS HEAVY UP AND RIGHT
ENCODING 9495
SWIDTH 548 0
DWIDTH 8 0
BBX 8 15 0 -3
BITMAP
18
18
18
18
18
18
18
1F
1F
00
00
00
00
00
00
ENDCHAR
STARTCHAR BOX DRAWINGS LIGHT UP AND LEFT
ENCODING 9496
SWIDTH 548 0
DWIDTH 8 0
BBX 8 15 0 -3
BITMAP
08
08
08
08
08
08
08
F8
00
00
00
00
00
00
00
ENDCHAR
STARTCHAR BOX DRAWINGS UP LIGHT AND LEFT HEAVY
ENCODING 9497
SWIDTH 548 0
DWIDTH 8 0
BBX 8 15 0 -3
BITMAP
08
08
08
08
08
08
08
F8
F8
00
00
00
00
00
00
ENDCHAR
STARTCHAR BOX DRAWINGS UP HEAVY AND LEFT LIGHT
ENCODING 9498
SWIDTH 548 0
DWIDTH 8 0
BBX 8 15 0 -3
BITMAP
18
18
18
18
18
18
18
F8
00
00
00
00
00
00
00
ENDCHAR
STARTCHAR BOX DRAWINGS HEAVY UP AND LEFT
ENCODING 9499
SWIDTH 548 0
DWIDTH 8 0
BBX 8 15 0 -3
BITMAP
18
18
18
18
18
18
18
F8
F8
00
00
00
00
00
00
ENDCHAR
STARTCHAR BOX DRAWINGS LIGHT VERTICAL AND RIGHT
ENCODING 9500
SWIDTH 548 0
DWIDTH 8 0
BBX 8 15 0 -3
BITMAP
08
08
08
08
08
08
08
0F
08
08
08
08
08
08
08
ENDCHAR
STARTCHAR BOX DRAWINGS VERTICAL LIGHT AND RIGHT HEAVY
ENCODING 9501
SWIDTH 548 0
DWIDTH 8 0
BBX 8 15 0 -3
BITMAP
08
08
08
08
08
08
08
0F
0F
08
08
08
08
08
08
ENDCHAR
STARTCHAR BOX DRAWINGS UP HEAVY AND RIGHT DOWN LIGHT
ENCODING 9502
SWIDTH 548 0
DWIDTH 8 0
BBX 8 15 0 -3
BITMAP
18
18
18
18
18
18
18
1F
08
08
08
08
08
08
08
ENDCHAR
STARTCHAR BOX DRAWINGS DOWN HEAVY AND RIGHT UP LIGHT
ENCODING 9503
SWIDTH 548 0
DWIDTH 8 0
BBX 8 15 0 -3
BITMAP
08
08
08
08
08
08
08
1F
18
18
18
18
18
18
18
ENDCHAR
STARTCHAR BOX DRAWINGS VERTICAL HEAVY AND RIGHT LIGHT
ENCODING 9504
SWIDTH 548 0
DWIDTH 8 0
BBX 8 15 0 -3
BITMAP
18
18
18
18
18
18
18
1F
18
18
18
18
18
18
18
ENDCHAR
STARTCHAR BOX DRAWINGS DOWN LIGHT AND RIGHT UP HEAVY
ENCODING 9505
SWIDTH 548 0
DWIDTH 8 0
BBX 8 15 0 -3
BITMAP
18
18
18
18
18
18
18
1F
1F
08
08
08
08
08
08
ENDCHAR
STARTCHAR BOX DRAWINGS UP LIGHT AND RIGHT DOWN HEAVY
ENCODING 9506
SWIDTH 548 0
DWIDTH 8 0
BBX 8 15 0 -3
BITMAP
08
08
08
08
08
08
08
1F
1F
18
18
18
18
18
18
ENDCHAR
STARTCHAR BOX DRAWINGS HEAVY VERTICAL AND RIGHT
ENCODING 9507
SWIDTH 548 0
DWIDTH 8 0
BBX 8 15 0 -3
BITMAP
18
18
18
18
18
18
18
1F
1F
18
18
18
18
18
18
ENDCHAR
STARTCHAR BOX DRAWINGS LIGHT VERTICAL AND LEFT
ENCODING 9508
SWIDTH 548 0
DWIDTH 8 0
BBX 8 15 0 -3
BITMAP
08
08
08
08
08
08
08
F8
08
08
08
08
08
08
08
ENDCHAR
STARTCHAR BOX DRAWINGS VERTICAL LIGHT AND LEFT HEAVY
ENCODING 9509
SWIDTH 548 0
DWIDTH 8 0
BBX 8 15 0 -3
BITMAP
08
08
08
08
08
08
08
F8
F8
08
08
08
08
08
08
ENDCHAR
STARTCHAR BOX DRAWINGS UP HEAVY AND LEFT DOWN LIGHT
ENCODING 9510
SWIDTH 548 0
DWIDTH 8 0
BBX 8 15 0 -3
BITMAP
18
18
18
18
18
18
18
F8
08
08
08
08
08
08
08
ENDCHAR
STARTCHAR BOX DRAWINGS DOWN HEAVY AND LEFT UP LIGHT
ENCODING 9511
SWIDTH 548 0
DWIDTH 8 0
BBX 8 15 0 -3
BITMAP
08
08
08
08
08
08
08
F8
18
18
18
18
18
18
18
ENDCHAR
STARTCHAR BOX DRAWINGS VERTICAL HEAVY AND LEFT LIGHT
ENCODING 9512
SWIDTH 548 0
DWIDTH 8 0
BBX 8 15 0 -3
BITMAP
18
18
18
18
18
18
18
F8
18
18
18
18
18
18
18
ENDCHAR
STARTCHAR BOX DRAWINGS DOWN LIGHT AND LEFT UP HEAVY
ENCODING 9513
SWIDTH 548 0
DWIDTH 8 0
BBX 8 15 0 -3
BITMAP
18
18
18
18
18
18
18
F8
F8
08
08
08
08
08
08
ENDCHAR
STARTCHAR BOX DRAWINGS UP LIGHT AND LEFT DOWN HEAVY
ENCODING 9514
SWIDTH 548 0
DWIDTH 8 0
BBX 8 15 0 -3
BITMAP
08
08
08
08
08
08
08
F8
F8
18
18
18
18
18
18
ENDCHAR
STARTCHAR BOX DRAWINGS HEAVY VERTICAL AND LEFT
ENCODING 9515
SWIDTH 548 0
DWIDTH 8 0
BBX 8 15 0 -3
BITMAP
18
18
18
18
18
18
18
F8
F8
18
18
18
18
18
18
ENDCHAR
STARTCHAR BOX DRAWINGS LIGHT DOWN AND HORIZONTAL
ENCODING 9516
SWIDTH 548 0
DWIDTH 8 0
BBX 8 15 0 -3
BITMAP
00
00
00
00
00
00
00
FF
08
08
08
08
08
08
08
ENDCHAR
STARTCHAR BOX DRAWINGS LEFT HEAVY AND RIGHT DOWN LIGHT
ENCODING 9517
SWIDTH 548 0
DWIDTH 8 0
BBX 8 15 0 -3
BITMAP
00
00
00
00
00
00
00
FF
F8
08
08
08
08
08
08
ENDCHAR
STARTCHAR BOX DRAWINGS RIGHT HEAVY AND LEFT DOWN LIGHT
ENCODING 9518
SWIDTH 548 0
DWIDTH 8 0
BBX 8 15 0 -3
BITMAP
00
00
00
00
00
00
00
FF
0F
08
08
08
08
08
08
ENDCHAR
STARTCHAR BOX DRAWINGS DOWN LIGHT AND HORIZONTAL HEAVY
ENCODING 9519
SWIDTH 548 0
DWIDTH 8 0
BBX 8 15 0 -3
BITMAP
00
00
00
00
00
00
00
FF
FF
08
08
08
08
08
08
ENDCHAR
STARTCHAR BOX DRAWINGS DOWN HEAVY AND HORIZONTAL LIGHT
ENCODING 9520
SWIDTH 548 0
DWIDTH 8 0
BBX 8 15 0 -3
BITMAP
00
00
00
00
00
00
00
FF
18
18
18
18
18
18
18
ENDCHAR
STARTCHAR BOX DRAWINGS RIGHT LIGHT AND LEFT DOWN HEAVY
ENCODING 9521
SWIDTH 548 0
DWIDTH 8 0
BBX 8 15 0 -3
BITMAP
00
00
00
00
00
00
00
FF
F8
18
18
18
18
18
18
ENDCHAR
STARTCHAR BOX DRAWINGS LEFT LIGHT AND RIGHT DOWN HEAVY
ENCODING 9522
SWIDTH 548 0
DWIDTH 8 0
BBX 8 15 0 -3
BITMAP
00
00
00
00
00
00
00
FF
1F
18
18
18
18
18
18
ENDCHAR
STARTCHAR BOX DRAWINGS HEAVY DOWN AND HORIZONTAL
ENCODING 9523
SWIDTH 548 0
DWIDTH 8 0
BBX 8 15 0 -3
BITMAP
00
00
00
00
00
00
00
FF
FF
18
18
18
18
18
18
ENDCHAR
STARTCHAR BOX DRAWINGS LIGHT UP AND HORIZONTAL
ENCODING 9524
SWIDTH 548 0
DWIDTH 8 0
BBX 8 15 0 -3
BITMAP
08
08
08
08
08
08
08
FF
00
00
00
00
00
00
00
ENDCHAR
STARTCHAR BOX DRAWINGS LEFT HEAVY AND RIGHT UP LIGHT
ENCODING 9525
SWIDTH 548 0
DWIDTH 8 0
BBX 8 15 0 -3
BITMAP
08
08
08
08
08
08
08
FF
F8
00
00
00
00
00
00
ENDCHAR
STARTCHAR BOX DRAWINGS RIGHT HEAVY AND LEFT UP LIGHT
ENCODING 9526
SWIDTH 548 0
DWIDTH 8 0
BBX 8 15 0 -3
BITMAP
08
08
08
08
08
08
08
FF
0F
00
00
00
00
00
00
ENDCHAR
STARTCHAR BOX DRAWINGS UP LIGHT AND HORIZONTAL HEAVY
ENCODING 9527
SWIDTH 548 0
DWIDTH 8 0
BBX 8 15 0 -3
BITMAP
08
08
08
08
08
08
08
FF
FF
00
00
00
00
00
00
ENDCHAR
STARTCHAR BOX DRAWINGS UP HEAVY AND HORIZONTAL LIGHT
ENCODING 9528
SWIDTH 548 0
DWIDTH 8 0
BBX 8 15 0 -3
BITMAP
18
18
18
18
18
18
18
FF
00
00
00
00
00
00
00
ENDCHAR
STARTCHAR BOX DRAWINGS RIGHT LIGHT AND LEFT UP HEAVY
ENCODING 9529
SWIDTH 548 0
DWIDTH 8 0
BBX 8 15 0 -3
BITMAP
18
18
18
18
18
18
18
FF
F8
00
00
00
00
00
00
ENDCHAR
STARTCHAR BOX DRAWINGS LEFT LIGHT AND RIGHT UP HEAVY
ENCODING 9530
SWIDTH 548 0
DWIDTH 8 0
BBX 8 15 0 -3
BITMAP
18
18
18
18
18
18
18
FF
1F
00
00
00
00
00
00
ENDCHAR
STARTCHAR BOX DRAWINGS HEAVY UP AND HORIZONTAL
ENCODING 9531
SWIDTH 548 0
DWIDTH 8 0
BBX 8 15 0 -3
BITMAP
18
18
18
18
18
18
18
FF
FF
00
00
00
00
00
00
ENDCHAR
STARTCHAR BOX DRAWINGS LIGHT VERTICAL AND HORIZONTAL
ENCODING 9532
SWIDTH 548 0
DWIDTH 8 0
BBX 8 15 0 -3
BITMAP
08
08
08
08
08
08
08
FF
08
08
08
08
08
08
08
ENDCHAR
STARTCHAR BOX DRAWINGS LEFT HEAVY AND RIGHT VERTICAL LIGHT
ENCODING 9533
SWIDTH 548 0
DWIDTH 8 0
BBX 8 15 0 -3
BITMAP
08
08
08
08
08
08
08
FF
F8
08
08
08
08
08
08
ENDCHAR
STARTCHAR BOX DRAWINGS RIGHT HEAVY AND LEFT VERTICAL LIGHT
ENCODING 9534
SWIDTH 548 0
DWIDTH 8 0
BBX 8 15 0 -3
BITMAP
08
08
08
08
08
08
08
FF
0F
08
08
08
08
08
08
ENDCHAR
STARTCHAR BOX DRAWINGS VERTICAL LIGHT AND HORIZONTAL HEAVY
ENCODING 9535
SWIDTH 548 0
DWIDTH 8 0
BBX 8 15 0 -3
BITMAP
08
08
08
08
08
08
08
FF
FF
08
08
08
08
08
08
ENDCHAR
STARTCHAR BOX DRAWINGS UP HEAVY AND DOWN HORIZONTAL LIGHT
ENCODING 9536
SWIDTH 548 0
DWIDTH 8 0
BBX 8 15 0 -3
BITMAP
18
18
18
18
18
18
18
FF
08
08
08
08
08
08
08
ENDCHAR
STARTCHAR BOX DRAWINGS DOWN HEAVY AND UP HORIZONTAL LIGHT
ENCODING 9537
SWIDTH 548 0
DWIDTH 8 0
BBX 8 15 0 -3
BITMAP
08
08
08
08
08
08
08
FF
18
18
18
18
18
18
18
ENDCHAR
STARTCHAR BOX DRAWINGS VERTICAL HEAVY AND HORIZONTAL LIGHT
ENCODING 9538
SWIDTH 548 0
DWIDTH 8 0
BBX 8 15 0 -3
BITMAP
18
18
18
18
18
18
18
FF
18
18
18
18
18
18
18
ENDCHAR
STARTCHAR BOX DRAWINGS LEFT UP HEAVY AND RIGHT DOWN LIGHT
ENCODING 9539
SWIDTH 548 0
DWIDTH 8 0
BBX 8 15 0 -3
BITMAP
18
18
18
18
18
18
18
FF
F8
08
08
08
08
08
08
ENDCHAR
STARTCHAR BOX DRAWINGS RIGHT UP HEAVY AND LEFT DOWN LIGHT
ENCODING 9540
SWIDTH 548 0
DWIDTH 8 0
BBX 8 15 0 -3
BITMAP
18
18
18
18
18
18
18
FF
1F
08
08
08
08
08
08
ENDCHAR
STARTCHAR BOX DRAWINGS LEFT DOWN HEAVY AND RIGHT UP LIGHT
ENCODING 9541
SWIDTH 548 0
DWIDTH 8 0
BBX 8 15 0 -3
BITMAP
08
08
08
08
08
08
08
FF
F8
18
18
18
18
18
18
ENDCHAR
STARTCHAR BOX DRAWINGS RIGHT DOWN HEAVY AND LEFT UP LIGHT
ENCODING 9542
SWIDTH 548 0
DWIDTH 8 0
BBX 8 15 0 -3
BITMAP
08
08
08
08
08
08
08
FF
1F
18
18
18
18
18
18
ENDCHAR
STARTCHAR BOX DRAWINGS DOWN LIGHT AND UP HORIZONTAL HEAVY
ENCODING 9543
SWIDTH 548 0
DWIDTH 8 0
BBX 8 15 0 -3
BITMAP
18
18
18
18
18
18
18
FF
FF
08
08
08
08
08
08
ENDCHAR
STARTCHAR BOX DRAWINGS UP LIGHT AND DOWN HORIZONTAL HEAVY
ENCODING 9544
SWIDTH 548 0
DWIDTH 8 0
BBX 8 15 0 -3
BITMAP
08
08
08
08
08
08
08
FF
FF
18
18
18
18
18
18
ENDCHAR
STARTCHAR BOX DRAWINGS RIGHT LIGHT AND LEFT VERTICAL HEAVY
ENCODING 9545
SWIDTH 548 0
DWIDTH 8 0
BBX 8 15 0 -3
BITMAP
18
18
18
18
18
18
18
FF
F8
18
18
18
18
18
18
ENDCHAR
STARTCHAR BOX DRAWINGS LEFT LIGHT AND RIGHT VERTICAL HEAVY
ENCODING 9546
SWIDTH 548 0
DWIDTH 8 0
BBX 8 15 0 -3
BITMAP
18
18
18
18
18
18
18
FF
1F
18
18
18
18
18
18
ENDCHAR
STARTCHAR BOX DRAWINGS HEAVY VERTICAL AND HORIZONTAL
ENCODING 9547
SWIDTH 548 0
DWIDTH 8 0
BBX 8 15 0 -3
BITMAP
18
18
18
18
18
18
18
FF
FF
18
18
18
18
18
18
ENDCHAR
STARTCHAR BOX DRAWINGS LIGHT DOUBLE DASH HORIZONTAL
ENCODING 9548
SWIDTH 548 0
DWIDTH 8 0
BBX 8 15 0 -3
BITMAP
00
00
00
00
00
00
00
77
00
00
00
00
00
00
00
ENDCHAR
STARTCHAR BOX DRAWINGS HEAVY DOUBLE DASH HORIZONTAL
ENCODING 9549
SWIDTH 548 0
DWIDTH 8 0
BBX 8 15 0 -3
BITMAP
00
00
00
00
00
00
00
77
77
00
00
00
00
00
00
ENDCHAR
STARTCHAR BOX DRAWINGS LIGHT DOUBLE DASH VERTICAL
ENCODING 9550
SWIDTH 548 0
DWIDTH 8 0
BBX 8 15 0 -3
BITMAP
00
00
08
08
08
08
08
00
00
00
08
08
08
08
08
ENDCHAR
STARTCHAR BOX DRAWINGS HEAVY DOUBLE DASH VERTICAL
ENCODING 9551
SWIDTH 548 0
DWIDTH 8 0
BBX 8 15 0 -3
BITMAP
00
00
18
18
18
18
18
00
00
00
18
18
18
18
18
ENDCHAR
STARTCHAR BOX DRAWINGS DOUBLE HORIZONTAL
ENCODING 9552
SWIDTH 548 0
DWIDTH 8 0
BBX 8 15 0 -3
BITMAP
00
00
00
00
00
00
FF
00
FF
00
00
00
00
00
00
ENDCHAR
STARTCHAR BOX DRAWINGS DOUBLE VERTICAL
ENCODING 9553
SWIDTH 548 0
DWIDTH 8 0
BBX 8 15 0 -3
BITMAP
14
14
14
14
14
14
14
14
14
14
14
14
14
14
14
ENDCHAR
STARTCHAR BOX DRAWINGS DOWN SINGLE AND RIGHT DOUBLE
ENCODING 9554
SWIDTH 548 0
DWIDTH 8 0
BBX 8 15 0 -3
BITMAP
00
00
00
00
00
00
0F
08
0F
08
08
08
08
08
08
ENDCHAR
STARTCHAR BOX DRAWINGS DOWN DOUBLE AND RIGHT SINGLE
ENCODING 9555
SWIDTH 548 0
DWIDTH 8 0
BBX 8 15 0 -3
BITMAP
00
00
00
00
00
00
00
1F
14
14
14
14
14
14
14
ENDCHAR
STARTCHAR BOX DRAWINGS DOUBLE DOWN AND RIGHT
ENCODING 9556
SWIDTH 548 0
DWIDTH 8 0
BBX 8 15 0 -3
BITMAP
00
00
00
00
00
00
1F
10
17
14
14
14
14
14
14
ENDCHAR
STARTCHAR BOX DRAWINGS DOWN SINGLE AND LEFT DOUBLE
ENCODING 9557
SWIDTH 548 0
DWIDTH 8 0
BBX 8 15 0 -3
BITMAP
00
00
00
00
00
00
F8
08
F8
08
08
08
08
08
08
ENDCHAR
STARTCHAR BOX DRAWINGS DOWN DOUBLE AND LEFT SINGLE
ENCODING 9558
SWIDTH 548 0
DWIDTH 8 0
BBX 8 15 0 -3
BITMAP
00
00
00
00
00
00
00
FC
14
14
14
14
14
14
14
ENDCHAR
STARTCHAR BOX DRAWINGS DOUBLE DOWN AND LEFT
ENCODING 9559
SWIDTH 548 0
DWIDTH 8 0
BBX 8 15 0 -3
BITMAP
00
00
00
00
00
00
FC
04
F4
14
14
14
14
14
14
ENDCHAR
STARTCHAR BOX DRAWINGS UP SINGLE AND RIGHT DOUBLE
ENCODING 9560
SWIDTH 548 0
DWIDTH 8 0
BBX 8 15 0 -3
BITMAP
08
08
08
08
08
08
0F
08
0F
00
00
00
00
00
00
ENDCHAR
STARTCHAR BOX DRAWINGS UP DOUBLE AND RIGHT SINGLE
ENCODING 9561
SWIDTH 548 0
DWIDTH 8 0
BBX 8 15 0 -3
BITMAP
14
14
14
14
14
14
14
1F
00
00
00
00
00
00
00
ENDCHAR
STARTCHAR BOX DRAWINGS DOUBLE UP AND RIGHT
ENCODING 9562
SWIDTH 548 0
DWIDTH 8 0
BBX 8 15 0 -3
BITMAP
14
14
14
14
14
14
17
10
1F
00
00
00
00
00
00
ENDCHAR
STARTCHAR BOX DRAWINGS UP SINGLE AND LEFT DOUBLE
ENCODING 9563
SWIDTH 548 0
DWIDTH 8 0
BBX 8 15 0 -3
BITMAP
08
08
08
08
08
08
F8
08
F8
00
00
00
00
00
00
ENDCHAR
STARTCHAR BOX DRAWINGS UP DOUBLE AND LEFT SINGLE
ENCODING 9564
SWIDTH 548 0
DWIDTH 8 0
BBX 8 15 0 -3
BITMAP
14
14
14
14
14
14
14
FC
00
00
00
00
00
00
00
ENDCHAR
STARTCHAR BOX DRAWINGS DOUBLE UP AND LEFT
ENCODING 9565
SWIDTH 548 0
DWIDTH 8 0
BBX 8 15 0 -3
BITMAP
14
14
14
14
14
14
F4
04
FC
00
00
00
00
00
00
ENDCHAR
STARTCHAR BOX DRAWINGS VERTICAL SINGLE AND RIGHT DOUBLE
ENCODING 9566
SWIDTH 548 0
DWIDTH 8 0
BBX 8 15 0 -3
BITMAP
08
08
08
08
08
08
0F
08
0F
08
08
08
08
08
08
ENDCHAR
STARTCHAR BOX DRAWINGS VERTICAL DOUBLE AND RIGHT SINGLE
ENCODING 9567
SWIDTH 548 0
DWIDTH 8 0
BBX 8 15 0 -3
BITMAP
14
14
14
14
14
14
14
17
14
14
14
14
14
14
14
ENDCHAR
STARTCHAR BOX DRAWINGS DOUBLE VERTICAL AND RIGHT
ENCODING 9568
SWIDTH 548 0
DWIDTH 8 0
BBX 8 15 0 -3
BITMAP
14
14
14
14
14
14
17
10
17
14
14
14
14
14
14
ENDCHAR
STARTCHAR BOX DRAWINGS VERTICAL SINGLE AND LEFT DOUBLE
ENCODING 9569
SWIDTH 548 0
DWIDTH 8 0
BBX 8 15 0 -3
BITMAP
08
08
08
08
08
08
F8
08
F8
08
08
08
08
08
08
ENDCHAR
STARTCHAR BOX DRAWINGS VERTICAL DOUBLE AND LEFT SINGLE
ENCODING 9570
SWIDTH 548 0
DWIDTH 8 0
BBX 8 15 0 -3
BITMAP
14
14
14
14
14
14
14
F4
14
14
14
14
14
14
14
ENDCHAR
STARTCHAR BOX DRAWINGS DOUBLE VERTICAL AND LEFT
ENCODING 9571
SWIDTH 548 0
DWIDTH 8 0
BBX 8 15 0 -3
BITMAP
14
14
14
14
14
14
F4
04
F4
14
14
14
14
14
14
ENDCHAR
STARTCHAR BOX DRAWINGS DOWN SINGLE AND HORIZONTAL DOUBLE
ENCODING 9572
SWIDTH 548 0
DWIDTH 8 0
BBX 8 15 0 -3
BITMAP
00
00
00
00
00
00
FF
00
FF
08
08
08
08
08
08
ENDCHAR
STARTCHAR BOX DRAWINGS DOWN DOUBLE AND HORIZONTAL SINGLE
ENCODING 9573
SWIDTH 548 0
DWIDTH 8 0
BBX 8 15 0 -3
BITMAP
00
00
00
00
00
00
00
FF
14
14
14
14
14
14
14
ENDCHAR
STARTCHAR BOX DRAWINGS DOUBLE DOWN AND HORIZONTAL
ENCODING 9574
SWIDTH 548 0
DWIDTH 8 0
BBX 8 15 0 -3
BITMAP
00
00
00
00
00
00
FF
00
F7
14
14
14
14
14
14
ENDCHAR
STARTCHAR BOX DRAWINGS UP SINGLE AND HORIZONTAL DOUBLE
ENCODING 9575
SWIDTH 548 0
DWIDTH 8 0
BBX 8 15 0 -3
BITMAP
08
08
08
08
08
08
FF
00
FF
00
00
00
00
00
00
ENDCHAR
STARTCHAR BOX DRAWINGS UP DOUBLE AND HORIZONTAL SINGLE
ENCODING 9576
SWIDTH 548 0
DWIDTH 8 0
BBX 8 15 0 -3
BITMAP
14
14
14
14
14
14
14
FF
00
00
00
00
00
00
00
ENDCHAR
STARTCHAR BOX DRAWINGS DOUBLE UP AND HORIZONTAL
ENCODING 9577
SWIDTH 548 0
DWIDTH 8 0
BBX 8 15 0 -3
BITMAP
14
14
14
14
14
14
F7
00
FF
00
00
00
00
00
00
ENDCHAR
STARTCHAR BOX DRAWINGS VERTICAL SINGLE AND HORIZONTAL DOUBLE
ENCODING 9578
SWIDTH 548 0
DWIDTH 8 0
BBX 8 15 0 -3
BITMAP
08
08
08
08
08
08
FF
00
FF
08
08
08
08
08
08
ENDCHAR
STARTCHAR BOX DRAWINGS VERTICAL DOUBLE AND HORIZONTAL SINGLE
ENCODING 9579
SWIDTH 548 0
DWIDTH 8 0
BBX 8 15 0 -3
BITMAP
14
14
14
14
14
14
14
F7
14
14
14
14
14
14
14
ENDCHAR
STARTCHAR BOX DRAWINGS DOUBLE VERTICAL AND HORIZONTAL
ENCODING 9580
SWIDTH 548 0
DWIDTH 8 0
BBX 8 15 0 -3
BITMAP
14
14
14
14
14
14
F7
00
F7
14
14
14
14
14
14
ENDCHAR
STARTCHAR BOX DRAWINGS LIGHT ARC DOWN AND RIGHT
ENCODING 9581
SWIDTH 548 0
DWIDTH 8 0
BBX 8 15 0 -3
BITMAP
00
00
00
00
00
00
00
01
02
04
04
08
08
08
08
ENDCHAR
STARTCHAR BOX DRAWINGS LIGHT ARC DOWN AND LEFT
ENCODING 9582
SWIDTH 548 0
DWIDTH 8 0
BBX 8 15 0 -3
BITMAP
00
00
00
00
00
00
00
C0
20
10
10
08
08
08
08
ENDCHAR
STARTCHAR BOX DRAWINGS LIGHT ARC UP AND LEFT
ENCODING 9583
SWIDTH 548 0
DWIDTH 8 0
BBX 8 15 0 -3
BITMAP
08
08
08
08
10
10
20
C0
00
00
00
00
00
00
00
ENDCHAR
STARTCHAR BOX DRAWINGS LIGHT ARC UP AND RIGHT
ENCODING 9584
SWIDTH 548 0
DWIDTH 8 0
BBX 8 15 0 -3
BITMAP
08
08
08
08
04
04
02
01
00
00
00
00
00
00
00
ENDCHAR
STARTCHAR BOX DRAWINGS LIGHT DIAGONAL UPPER RIGHT TO LOWER LEFT
ENCODING 9585
SWIDTH 548 0
DWIDTH 8 0
BBX 8 15 0 -3
BITMAP
01
01
01
01
03
06
0C
18
30
60
C0
80
80
80
80
ENDCHAR
STARTCHAR BOX DRAWINGS LIGHT DIAGONAL UPPER LEFT TO LOWER RIGHT
ENCODING 9586
SWIDTH 548 0
DWIDTH 8 0
BBX 8 15 0 -3
BITMAP
80
80
80
80
C0
60
30
18
0C
06
03
01
01
01
01
ENDCHAR
STARTCHAR BOX DRAWINGS LIGHT DIAGONAL CROSS
ENCODING 9587
SWIDTH 548 0
DWIDTH 8 0
BBX 8 15 0 -3
BITMAP
81
81
81
81
C3
66
3C
18
3C
66
C3
81
81
81
81
ENDCHAR
STARTCHAR BOX DRAWINGS LIGHT LEFT
ENCODING 9588
SWIDTH 548 0
DWIDTH 8 0
BBX 8 15 0 -3
BITMAP
00
00
00
00
00
00
18
F8
18
00
00
00
00
00
00
ENDCHAR
STARTCHAR BOX DRAWINGS LIGHT UP
ENCODING 9589
SWIDTH 548 0
DWIDTH 8 0
BBX 8 15 0 -3
BITMAP
08
08
08
08
08
08
08
1C
1C
00
00
00
00
00
00
ENDCHAR
STARTCHAR BOX DRAWINGS LIGHT RIGHT
ENCODING 9590
SWIDTH 548 0
DWIDTH 8 0
BBX 8 15 0 -3
BITMAP
00
00
00
00
00
00
18
1F
18
00
00
00
00
00
00
ENDCHAR
STARTCHAR BOX DRAWINGS LIGHT DOWN
ENCODING 9591
SWIDTH 548 0
DWIDTH 8 0
BBX 8 15 0 -3
BITMAP
00
00
00
00
00
00
00
1C
1C
08
08
08
08
08
08
ENDCHAR
STARTCHAR BOX DRAWINGS HEAVY LEFT
ENCODING 9592
SWIDTH 548 0
DWIDTH 8 0
BBX 8 15 0 -3
BITMAP
00
00
00
00
00
00
18
F8
F8
18
00
00
00
00
00
ENDCHAR
STARTCHAR BOX DRAWINGS HEAVY UP
ENCODING 9593
SWIDTH 548 0
DWIDTH 8 0
BBX 8 15 0 -3
BITMAP
18
18
18
18
18
18
18
3C
3C
00
00
00
00
00
00
ENDCHAR
STARTCHAR BOX DRAWINGS HEAVY RIGHT
ENCODING 9594
SWIDTH 548 0
DWIDTH 8 0
BBX 8 15 0 -3
BITMAP
00
00
00
00
00
00
18
1F
1F
18
00
00
00
00
00
ENDCHAR
STARTCHAR BOX DRAWINGS HEAVY DOWN
ENCODING 9595
SWIDTH 548 0
DWIDTH 8 0
BBX 8 15 0 -3
BITMAP
00
00
00
00
00
00
00
3C
3C
18
18
18
18
18
18
ENDCHAR
STARTCHAR BOX DRAWINGS LIGHT LEFT AND HEAVY RIGHT
ENCODING 9596
SWIDTH 548 0
DWIDTH 8 0
BBX 8 15 0 -3
BITMAP
00
00
00
00
00
00
00
FF
0F
00
00
00
00
00
00
ENDCHAR
STARTCHAR BOX DRAWINGS LIGHT UP AND HEAVY DOWN
ENCODING 9597
SWIDTH 548 0
DWIDTH 8 0
BBX 8 15 0 -3
BITMAP
08
08
08
08
08
08
08
08
18
18
18
18
18
18
18
ENDCHAR
STARTCHAR BOX DRAWINGS HEAVY LEFT AND LIGHT RIGHT
ENCODING 9598
SWIDTH 548 0
DWIDTH 8 0
BBX 8 15 0 -3
BITMAP
00
00
00
00
00
00
00
FF
F0
00
00
00
00
00
00
ENDCHAR
STARTCHAR BOX DRAWINGS HEAVY UP AND LIGHT DOWN
ENCODING 9599
SWIDTH 548 0
DWIDTH 8 0
BBX 8 15 0 -3
BITMAP
18
18
18
18
18
18
18
18
08
08
08
08
08
08
08
ENDCHAR
ENDFONT
